{"glyphs":{"0":{"ha":689,"x_min":0,"x_max":0,"o":"m 169.57 -760.35 l 266.12 -760.35 l 266.12 -856.90 l 169.57 -856.90 z m 296.29 -760.35 l 392.85 -760.35 l 392.85 -856.90 l 296.29 -856.90 z m 423.02 -760.35 l 519.57 -760.35 l 519.57 -856.90 l 423.02 -856.90 z m 42.84 -633.62 l 139.40 -633.62 l 139.40 -730.17 l 42.84 -730.17 z m 549.74 -633.62 l 646.29 -633.62 l 646.29 -730.17 l 549.74 -730.17 z m 42.84 -506.90 l 139.40 -506.90 l 139.40 -603.45 l 42.84 -603.45 z m 423.02 -506.90 l 519.57 -506.90 l 519.57 -603.45 l 423.02 -603.45 z m 549.74 -506.90 l 646.29 -506.90 l 646.29 -603.45 l 549.74 -603.45 z m 42.84 -380.17 l 139.40 -380.17 l 139.40 -476.72 l 42.84 -476.72 z m 296.29 -380.17 l 392.85 -380.17 l 392.85 -476.72 l 296.29 -476.72 z m 549.74 -380.17 l 646.29 -380.17 l 646.29 -476.72 l 549.74 -476.72 z m 42.84 -253.45 l 139.40 -253.45 l 139.40 -350.00 l 42.84 -350.00 z m 169.57 -253.45 l 266.12 -253.45 l 266.12 -350.00 l 169.57 -350.00 z m 549.74 -253.45 l 646.29 -253.45 l 646.29 -350.00 l 549.74 -350.00 z m 42.84 -126.72 l 139.40 -126.72 l 139.40 -223.28 l 42.84 -223.28 z m 549.74 -126.72 l 646.29 -126.72 l 646.29 -223.28 l 549.74 -223.28 z m 169.57 0.00 l 266.12 0.00 l 266.12 -96.55 l 169.57 -96.55 z m 296.29 0.00 l 392.85 0.00 l 392.85 -96.55 l 296.29 -96.55 z m 423.02 0.00 l 519.57 0.00 l 519.57 -96.55 l 423.02 -96.55 z "},"1":{"ha":689,"x_min":0,"x_max":0,"o":"m 296.29 -760.35 l 392.85 -760.35 l 392.85 -856.90 l 296.29 -856.90 z m 169.57 -633.62 l 266.12 -633.62 l 266.12 -730.17 l 169.57 -730.17 z m 296.29 -633.62 l 392.85 -633.62 l 392.85 -730.17 l 296.29 -730.17 z m 296.29 -506.90 l 392.85 -506.90 l 392.85 -603.45 l 296.29 -603.45 z m 296.29 -380.17 l 392.85 -380.17 l 392.85 -476.72 l 296.29 -476.72 z m 296.29 -253.45 l 392.85 -253.45 l 392.85 -350.00 l 296.29 -350.00 z m 296.29 -126.72 l 392.85 -126.72 l 392.85 -223.28 l 296.29 -223.28 z m 169.57 0.00 l 266.12 0.00 l 266.12 -96.55 l 169.57 -96.55 z m 296.29 0.00 l 392.85 0.00 l 392.85 -96.55 l 296.29 -96.55 z m 423.02 0.00 l 519.57 0.00 l 519.57 -96.55 l 423.02 -96.55 z "},"2":{"ha":689,"x_min":0,"x_max":0,"o":"m 169.57 -760.35 l 266.12 -760.35 l 266.12 -856.90 l 169.57 -856.90 z m 296.29 -760.35 l 392.85 -760.35 l 392.85 -856.90 l 296.29 -856.90 z m 423.02 -760.35 l 519.57 -760.35 l 519.57 -856.90 l 423.02 -856.90 z m 42.84 -633.62 l 139.40 -633.62 l 139.40 -730.17 l 42.84 -730.17 z m 549.74 -633.62 l 646.29 -633.62 l 646.29 -730.17 l 549.74 -730.17 z m 549.74 -506.90 l 646.29 -506.90 l 646.29 -603.45 l 549.74 -603.45 z m 423.02 -380.17 l 519.57 -380.17 l 519.57 -476.72 l 423.02 -476.72 z m 296.29 -253.45 l 392.85 -253.45 l 392.85 -350.00 l 296.29 -350.00 z m 169.57 -126.72 l 266.12 -126.72 l 266.12 -223.28 l 169.57 -223.28 z m 42.84 0.00 l 139.40 0.00 l 139.40 -96.55 l 42.84 -96.55 z m 169.57 0.00 l 266.12 0.00 l 266.12 -96.55 l 169.57 -96.55 z m 296.29 0.00 l 392.85 0.00 l 392.85 -96.55 l 296.29 -96.55 z m 423.02 0.00 l 519.57 0.00 l 519.57 -96.55 l 423.02 -96.55 z m 549.74 0.00 l 646.29 0.00 l 646.29 -96.55 l 549.74 -96.55 z "},"3":{"ha":689,"x_min":0,"x_max":0,"o":"m 42.84 -760.35 l 139.40 -760.35 l 139.40 -856.90 l 42.84 -856.90 z m 169.57 -760.35 l 266.12 -760.35 l 266.12 -856.90 l 169.57 -856.90 z m 296.29 -760.35 l 392.85 -760.35 l 392.85 -856.90 l 296.29 -856.90 z m 423.02 -760.35 l 519.57 -760.35 l 519.57 -856.90 l 423.02 -856.90 z m 549.74 -760.35 l 646.29 -760.35 l 646.29 -856.90 l 549.74 -856.90 z m 423.02 -633.62 l 519.57 -633.62 l 519.57 -730.17 l 423.02 -730.17 z m 296.29 -506.90 l 392.85 -506.90 l 392.85 -603.45 l 296.29 -603.45 z m 423.02 -380.17 l 519.57 -380.17 l 519.57 -476.72 l 423.02 -476.72 z m 549.74 -253.45 l 646.29 -253.45 l 646.29 -350.00 l 549.74 -350.00 z m 42.84 -126.72 l 139.40 -126.72 l 139.40 -223.28 l 42.84 -223.28 z m 549.74 -126.72 l 646.29 -126.72 l 646.29 -223.28 l 549.74 -223.28 z m 169.57 0.00 l 266.12 0.00 l 266.12 -96.55 l 169.57 -96.55 z m 296.29 0.00 l 392.85 0.00 l 392.85 -96.55 l 296.29 -96.55 z m 423.02 0.00 l 519.57 0.00 l 519.57 -96.55 l 423.02 -96.55 z "},"4":{"ha":689,"x_min":0,"x_max":0,"o":"m 423.02 -760.35 l 519.57 -760.35 l 519.57 -856.90 l 423.02 -856.90 z m 296.29 -633.62 l 392.85 -633.62 l 392.85 -730.17 l 296.29 -730.17 z m 423.02 -633.62 l 519.57 -633.62 l 519.57 -730.17 l 423.02 -730.17 z m 169.57 -506.90 l 266.12 -506.90 l 266.12 -603.45 l 169.57 -603.45 z m 423.02 -506.90 l 519.57 -506.90 l 519.57 -603.45 l 423.02 -603.45 z m 42.84 -380.17 l 139.40 -380.17 l 139.40 -476.72 l 42.84 -476.72 z m 423.02 -380.17 l 519.57 -380.17 l 519.57 -476.72 l 423.02 -476.72 z m 42.84 -253.45 l 139.40 -253.45 l 139.40 -350.00 l 42.84 -350.00 z m 169.57 -253.45 l 266.12 -253.45 l 266.12 -350.00 l 169.57 -350.00 z m 296.29 -253.45 l 392.85 -253.45 l 392.85 -350.00 l 296.29 -350.00 z m 423.02 -253.45 l 519.57 -253.45 l 519.57 -350.00 l 423.02 -350.00 z m 549.74 -253.45 l 646.29 -253.45 l 646.29 -350.00 l 549.74 -350.00 z m 423.02 -126.72 l 519.57 -126.72 l 519.57 -223.28 l 423.02 -223.28 z m 423.02 0.00 l 519.57 0.00 l 519.57 -96.55 l 423.02 -96.55 z "},"5":{"ha":689,"x_min":0,"x_max":0,"o":"m 42.84 -760.35 l 139.40 -760.35 l 139.40 -856.90 l 42.84 -856.90 z m 169.57 -760.35 l 266.12 -760.35 l 266.12 -856.90 l 169.57 -856.90 z m 296.29 -760.35 l 392.85 -760.35 l 392.85 -856.90 l 296.29 -856.90 z m 423.02 -760.35 l 519.57 -760.35 l 519.57 -856.90 l 423.02 -856.90 z m 549.74 -760.35 l 646.29 -760.35 l 646.29 -856.90 l 549.74 -856.90 z m 42.84 -633.62 l 139.40 -633.62 l 139.40 -730.17 l 42.84 -730.17 z m 42.84 -506.90 l 139.40 -506.90 l 139.40 -603.45 l 42.84 -603.45 z m 169.57 -506.90 l 266.12 -506.90 l 266.12 -603.45 l 169.57 -603.45 z m 296.29 -506.90 l 392.85 -506.90 l 392.85 -603.45 l 296.29 -603.45 z m 423.02 -506.90 l 519.57 -506.90 l 519.57 -603.45 l 423.02 -603.45 z m 549.74 -380.17 l 646.29 -380.17 l 646.29 -476.72 l 549.74 -476.72 z m 549.74 -253.45 l 646.29 -253.45 l 646.29 -350.00 l 549.74 -350.00 z m 42.84 -126.72 l 139.40 -126.72 l 139.40 -223.28 l 42.84 -223.28 z m 549.74 -126.72 l 646.29 -126.72 l 646.29 -223.28 l 549.74 -223.28 z m 169.57 0.00 l 266.12 0.00 l 266.12 -96.55 l 169.57 -96.55 z m 296.29 0.00 l 392.85 0.00 l 392.85 -96.55 l 296.29 -96.55 z m 423.02 0.00 l 519.57 0.00 l 519.57 -96.55 l 423.02 -96.55 z "},"6":{"ha":689,"x_min":0,"x_max":0,"o":"m 296.29 -760.35 l 392.85 -760.35 l 392.85 -856.90 l 296.29 -856.90 z m 423.02 -760.35 l 519.57 -760.35 l 519.57 -856.90 l 423.02 -856.90 z m 169.57 -633.62 l 266.12 -633.62 l 266.12 -730.17 l 169.57 -730.17 z m 42.84 -506.90 l 139.40 -506.90 l 139.40 -603.45 l 42.84 -603.45 z m 42.84 -380.17 l 139.40 -380.17 l 139.40 -476.72 l 42.84 -476.72 z m 169.57 -380.17 l 266.12 -380.17 l 266.12 -476.72 l 169.57 -476.72 z m 296.29 -380.17 l 392.85 -380.17 l 392.85 -476.72 l 296.29 -476.72 z m 423.02 -380.17 l 519.57 -380.17 l 519.57 -476.72 l 423.02 -476.72 z m 42.84 -253.45 l 139.40 -253.45 l 139.40 -350.00 l 42.84 -350.00 z m 549.74 -253.45 l 646.29 -253.45 l 646.29 -350.00 l 549.74 -350.00 z m 42.84 -126.72 l 139.40 -126.72 l 139.40 -223.28 l 42.84 -223.28 z m 549.74 -126.72 l 646.29 -126.72 l 646.29 -223.28 l 549.74 -223.28 z m 169.57 0.00 l 266.12 0.00 l 266.12 -96.55 l 169.57 -96.55 z m 296.29 0.00 l 392.85 0.00 l 392.85 -96.55 l 296.29 -96.55 z m 423.02 0.00 l 519.57 0.00 l 519.57 -96.55 l 423.02 -96.55 z "},"7":{"ha":689,"x_min":0,"x_max":0,"o":"m 42.84 -760.35 l 139.40 -760.35 l 139.40 -856.90 l 42.84 -856.90 z m 169.57 -760.35 l 266.12 -760.35 l 266.12 -856.90 l 169.57 -856.90 z m 296.29 -760.35 l 392.85 -760.35 l 392.85 -856.90 l 296.29 -856.90 z m 423.02 -760.35 l 519.57 -760.35 l 519.57 -856.90 l 423.02 -856.90 z m 549.74 -760.35 l 646.29 -760.35 l 646.29 -856.90 l 549.74 -856.90 z m 549.74 -633.62 l 646.29 -633.62 l 646.29 -730.17 l 549.74 -730.17 z m 423.02 -506.90 l 519.57 -506.90 l 519.57 -603.45 l 423.02 -603.45 z m 296.29 -380.17 l 392.85 -380.17 l 392.85 -476.72 l 296.29 -476.72 z m 169.57 -253.45 l 266.12 -253.45 l 266.12 -350.00 l 169.57 -350.00 z m 169.57 -126.72 l 266.12 -126.72 l 266.12 -223.28 l 169.57 -223.28 z m 169.57 0.00 l 266.12 0.00 l 266.12 -96.55 l 169.57 -96.55 z "},"8":{"ha":689,"x_min":0,"x_max":0,"o":"m 169.57 -760.35 l 266.12 -760.35 l 266.12 -856.90 l 169.57 -856.90 z m 296.29 -760.35 l 392.85 -760.35 l 392.85 -856.90 l 296.29 -856.90 z m 423.02 -760.35 l 519.57 -760.35 l 519.57 -856.90 l 423.02 -856.90 z m 42.84 -633.62 l 139.40 -633.62 l 139.40 -730.17 l 42.84 -730.17 z m 549.74 -633.62 l 646.29 -633.62 l 646.29 -730.17 l 549.74 -730.17 z m 42.84 -506.90 l 139.40 -506.90 l 139.40 -603.45 l 42.84 -603.45 z m 549.74 -506.90 l 646.29 -506.90 l 646.29 -603.45 l 549.74 -603.45 z m 169.57 -380.17 l 266.12 -380.17 l 266.12 -476.72 l 169.57 -476.72 z m 296.29 -380.17 l 392.85 -380.17 l 392.85 -476.72 l 296.29 -476.72 z m 423.02 -380.17 l 519.57 -380.17 l 519.57 -476.72 l 423.02 -476.72 z m 42.84 -253.45 l 139.40 -253.45 l 139.40 -350.00 l 42.84 -350.00 z m 549.74 -253.45 l 646.29 -253.45 l 646.29 -350.00 l 549.74 -350.00 z m 42.84 -126.72 l 139.40 -126.72 l 139.40 -223.28 l 42.84 -223.28 z m 549.74 -126.72 l 646.29 -126.72 l 646.29 -223.28 l 549.74 -223.28 z m 169.57 0.00 l 266.12 0.00 l 266.12 -96.55 l 169.57 -96.55 z m 296.29 0.00 l 392.85 0.00 l 392.85 -96.55 l 296.29 -96.55 z m 423.02 0.00 l 519.57 0.00 l 519.57 -96.55 l 423.02 -96.55 z "},"9":{"ha":689,"x_min":0,"x_max":0,"o":"m 169.57 -760.35 l 266.12 -760.35 l 266.12 -856.90 l 169.57 -856.90 z m 296.29 -760.35 l 392.85 -760.35 l 392.85 -856.90 l 296.29 -856.90 z m 423.02 -760.35 l 519.57 -760.35 l 519.57 -856.90 l 423.02 -856.90 z m 42.84 -633.62 l 139.40 -633.62 l 139.40 -730.17 l 42.84 -730.17 z m 549.74 -633.62 l 646.29 -633.62 l 646.29 -730.17 l 549.74 -730.17 z m 42.84 -506.90 l 139.40 -506.90 l 139.40 -603.45 l 42.84 -603.45 z m 549.74 -506.90 l 646.29 -506.90 l 646.29 -603.45 l 549.74 -603.45 z m 169.57 -380.17 l 266.12 -380.17 l 266.12 -476.72 l 169.57 -476.72 z m 296.29 -380.17 l 392.85 -380.17 l 392.85 -476.72 l 296.29 -476.72 z m 423.02 -380.17 l 519.57 -380.17 l 519.57 -476.72 l 423.02 -476.72 z m 549.74 -380.17 l 646.29 -380.17 l 646.29 -476.72 l 549.74 -476.72 z m 549.74 -253.45 l 646.29 -253.45 l 646.29 -350.00 l 549.74 -350.00 z m 423.02 -126.72 l 519.57 -126.72 l 519.57 -223.28 l 423.02 -223.28 z m 169.57 0.00 l 266.12 0.00 l 266.12 -96.55 l 169.57 -96.55 z m 296.29 0.00 l 392.85 0.00 l 392.85 -96.55 l 296.29 -96.55 z "},"a":{"ha":689,"x_min":0,"x_max":0,"o":"m 169.57 -506.90 l 266.12 -506.90 l 266.12 -603.45 l 169.57 -603.45 z m 296.29 -506.90 l 392.85 -506.90 l 392.85 -603.45 l 296.29 -603.45 z m 423.02 -506.90 l 519.57 -506.90 l 519.57 -603.45 l 423.02 -603.45 z m 549.74 -380.17 l 646.29 -380.17 l 646.29 -476.72 l 549.74 -476.72 z m 169.57 -253.45 l 266.12 -253.45 l 266.12 -350.00 l 169.57 -350.00 z m 296.29 -253.45 l 392.85 -253.45 l 392.85 -350.00 l 296.29 -350.00 z m 423.02 -253.45 l 519.57 -253.45 l 519.57 -350.00 l 423.02 -350.00 z m 549.74 -253.45 l 646.29 -253.45 l 646.29 -350.00 l 549.74 -350.00 z m 42.84 -126.72 l 139.40 -126.72 l 139.40 -223.28 l 42.84 -223.28 z m 549.74 -126.72 l 646.29 -126.72 l 646.29 -223.28 l 549.74 -223.28 z m 169.57 0.00 l 266.12 0.00 l 266.12 -96.55 l 169.57 -96.55 z m 296.29 0.00 l 392.85 0.00 l 392.85 -96.55 l 296.29 -96.55 z m 423.02 0.00 l 519.57 0.00 l 519.57 -96.55 l 423.02 -96.55 z m 549.74 0.00 l 646.29 0.00 l 646.29 -96.55 l 549.74 -96.55 z "},"b":{"ha":689,"x_min":0,"x_max":0,"o":"m 42.84 -760.35 l 139.40 -760.35 l 139.40 -856.90 l 42.84 -856.90 z m 42.84 -633.62 l 139.40 -633.62 l 139.40 -730.17 l 42.84 -730.17 z m 42.84 -506.90 l 139.40 -506.90 l 139.40 -603.45 l 42.84 -603.45 z m 42.84 -380.17 l 139.40 -380.17 l 139.40 -476.72 l 42.84 -476.72 z m 296.29 -380.17 l 392.85 -380.17 l 392.85 -476.72 l 296.29 -476.72 z m 423.02 -380.17 l 519.57 -380.17 l 519.57 -476.72 l 423.02 -476.72 z m 42.84 -253.45 l 139.40 -253.45 l 139.40 -350.00 l 42.84 -350.00 z m 169.57 -253.45 l 266.12 -253.45 l 266.12 -350.00 l 169.57 -350.00 z m 549.74 -253.45 l 646.29 -253.45 l 646.29 -350.00 l 549.74 -350.00 z m 42.84 -126.72 l 139.40 -126.72 l 139.40 -223.28 l 42.84 -223.28 z m 549.74 -126.72 l 646.29 -126.72 l 646.29 -223.28 l 549.74 -223.28 z m 42.84 0.00 l 139.40 0.00 l 139.40 -96.55 l 42.84 -96.55 z m 169.57 0.00 l 266.12 0.00 l 266.12 -96.55 l 169.57 -96.55 z m 296.29 0.00 l 392.85 0.00 l 392.85 -96.55 l 296.29 -96.55 z m 423.02 0.00 l 519.57 0.00 l 519.57 -96.55 l 423.02 -96.55 z "},"c":{"ha":689,"x_min":0,"x_max":0,"o":"m 169.57 -506.90 l 266.12 -506.90 l 266.12 -603.45 l 169.57 -603.45 z m 296.29 -506.90 l 392.85 -506.90 l 392.85 -603.45 l 296.29 -603.45 z m 423.02 -506.90 l 519.57 -506.90 l 519.57 -603.45 l 423.02 -603.45 z m 42.84 -380.17 l 139.40 -380.17 l 139.40 -476.72 l 42.84 -476.72 z m 42.84 -253.45 l 139.40 -253.45 l 139.40 -350.00 l 42.84 -350.00 z m 42.84 -126.72 l 139.40 -126.72 l 139.40 -223.28 l 42.84 -223.28 z m 549.74 -126.72 l 646.29 -126.72 l 646.29 -223.28 l 549.74 -223.28 z m 169.57 0.00 l 266.12 0.00 l 266.12 -96.55 l 169.57 -96.55 z m 296.29 0.00 l 392.85 0.00 l 392.85 -96.55 l 296.29 -96.55 z m 423.02 0.00 l 519.57 0.00 l 519.57 -96.55 l 423.02 -96.55 z "},"d":{"ha":689,"x_min":0,"x_max":0,"o":"m 549.74 -760.35 l 646.29 -760.35 l 646.29 -856.90 l 549.74 -856.90 z m 549.74 -633.62 l 646.29 -633.62 l 646.29 -730.17 l 549.74 -730.17 z m 549.74 -506.90 l 646.29 -506.90 l 646.29 -603.45 l 549.74 -603.45 z m 169.57 -380.17 l 266.12 -380.17 l 266.12 -476.72 l 169.57 -476.72 z m 296.29 -380.17 l 392.85 -380.17 l 392.85 -476.72 l 296.29 -476.72 z m 549.74 -380.17 l 646.29 -380.17 l 646.29 -476.72 l 549.74 -476.72 z m 42.84 -253.45 l 139.40 -253.45 l 139.40 -350.00 l 42.84 -350.00 z m 423.02 -253.45 l 519.57 -253.45 l 519.57 -350.00 l 423.02 -350.00 z m 549.74 -253.45 l 646.29 -253.45 l 646.29 -350.00 l 549.74 -350.00 z m 42.84 -126.72 l 139.40 -126.72 l 139.40 -223.28 l 42.84 -223.28 z m 549.74 -126.72 l 646.29 -126.72 l 646.29 -223.28 l 549.74 -223.28 z m 169.57 0.00 l 266.12 0.00 l 266.12 -96.55 l 169.57 -96.55 z m 296.29 0.00 l 392.85 0.00 l 392.85 -96.55 l 296.29 -96.55 z m 423.02 0.00 l 519.57 0.00 l 519.57 -96.55 l 423.02 -96.55 z m 549.74 0.00 l 646.29 0.00 l 646.29 -96.55 l 549.74 -96.55 z "},"e":{"ha":689,"x_min":0,"x_max":0,"o":"m 169.57 -506.90 l 266.12 -506.90 l 266.12 -603.45 l 169.57 -603.45 z m 296.29 -506.90 l 392.85 -506.90 l 392.85 -603.45 l 296.29 -603.45 z m 423.02 -506.90 l 519.57 -506.90 l 519.57 -603.45 l 423.02 -603.45 z m 42.84 -380.17 l 139.40 -380.17 l 139.40 -476.72 l 42.84 -476.72 z m 549.74 -380.17 l 646.29 -380.17 l 646.29 -476.72 l 549.74 -476.72 z m 42.84 -253.45 l 139.40 -253.45 l 139.40 -350.00 l 42.84 -350.00 z m 169.57 -253.45 l 266.12 -253.45 l 266.12 -350.00 l 169.57 -350.00 z m 296.29 -253.45 l 392.85 -253.45 l 392.85 -350.00 l 296.29 -350.00 z m 423.02 -253.45 l 519.57 -253.45 l 519.57 -350.00 l 423.02 -350.00 z m 549.74 -253.45 l 646.29 -253.45 l 646.29 -350.00 l 549.74 -350.00 z m 42.84 -126.72 l 139.40 -126.72 l 139.40 -223.28 l 42.84 -223.28 z m 169.57 0.00 l 266.12 0.00 l 266.12 -96.55 l 169.57 -96.55 z m 296.29 0.00 l 392.85 0.00 l 392.85 -96.55 l 296.29 -96.55 z m 423.02 0.00 l 519.57 0.00 l 519.57 -96.55 l 423.02 -96.55 z "},"f":{"ha":689,"x_min":0,"x_max":0,"o":"m 296.29 -760.35 l 392.85 -760.35 l 392.85 -856.90 l 296.29 -856.90 z m 423.02 -760.35 l 519.57 -760.35 l 519.57 -856.90 l 423.02 -856.90 z m 169.57 -633.62 l 266.12 -633.62 l 266.12 -730.17 l 169.57 -730.17 z m 549.74 -633.62 l 646.29 -633.62 l 646.29 -730.17 l 549.74 -730.17 z m 169.57 -506.90 l 266.12 -506.90 l 266.12 -603.45 l 169.57 -603.45 z m 42.84 -380.17 l 139.40 -380.17 l 139.40 -476.72 l 42.84 -476.72 z m 169.57 -380.17 l 266.12 -380.17 l 266.12 -476.72 l 169.57 -476.72 z m 296.29 -380.17 l 392.85 -380.17 l 392.85 -476.72 l 296.29 -476.72 z m 169.57 -253.45 l 266.12 -253.45 l 266.12 -350.00 l 169.57 -350.00 z m 169.57 -126.72 l 266.12 -126.72 l 266.12 -223.28 l 169.57 -223.28 z m 169.57 0.00 l 266.12 0.00 l 266.12 -96.55 l 169.57 -96.55 z "},"g":{"ha":689,"x_min":0,"x_max":0,"o":"m 169.57 -633.62 l 266.12 -633.62 l 266.12 -730.17 l 169.57 -730.17 z m 296.29 -633.62 l 392.85 -633.62 l 392.85 -730.17 l 296.29 -730.17 z m 423.02 -633.62 l 519.57 -633.62 l 519.57 -730.17 l 423.02 -730.17 z m 549.74 -633.62 l 646.29 -633.62 l 646.29 -730.17 l 549.74 -730.17 z m 42.84 -506.90 l 139.40 -506.90 l 139.40 -603.45 l 42.84 -603.45 z m 549.74 -506.90 l 646.29 -506.90 l 646.29 -603.45 l 549.74 -603.45 z m 42.84 -380.17 l 139.40 -380.17 l 139.40 -476.72 l 42.84 -476.72 z m 549.74 -380.17 l 646.29 -380.17 l 646.29 -476.72 l 549.74 -476.72 z m 169.57 -253.45 l 266.12 -253.45 l 266.12 -350.00 l 169.57 -350.00 z m 296.29 -253.45 l 392.85 -253.45 l 392.85 -350.00 l 296.29 -350.00 z m 423.02 -253.45 l 519.57 -253.45 l 519.57 -350.00 l 423.02 -350.00 z m 549.74 -253.45 l 646.29 -253.45 l 646.29 -350.00 l 549.74 -350.00 z m 549.74 -126.72 l 646.29 -126.72 l 646.29 -223.28 l 549.74 -223.28 z m 169.57 0.00 l 266.12 0.00 l 266.12 -96.55 l 169.57 -96.55 z m 296.29 0.00 l 392.85 0.00 l 392.85 -96.55 l 296.29 -96.55 z m 423.02 0.00 l 519.57 0.00 l 519.57 -96.55 l 423.02 -96.55 z "},"h":{"ha":689,"x_min":0,"x_max":0,"o":"m 42.84 -760.35 l 139.40 -760.35 l 139.40 -856.90 l 42.84 -856.90 z m 42.84 -633.62 l 139.40 -633.62 l 139.40 -730.17 l 42.84 -730.17 z m 42.84 -506.90 l 139.40 -506.90 l 139.40 -603.45 l 42.84 -603.45 z m 296.29 -506.90 l 392.85 -506.90 l 392.85 -603.45 l 296.29 -603.45 z m 423.02 -506.90 l 519.57 -506.90 l 519.57 -603.45 l 423.02 -603.45 z m 42.84 -380.17 l 139.40 -380.17 l 139.40 -476.72 l 42.84 -476.72 z m 169.57 -380.17 l 266.12 -380.17 l 266.12 -476.72 l 169.57 -476.72 z m 549.74 -380.17 l 646.29 -380.17 l 646.29 -476.72 l 549.74 -476.72 z m 42.84 -253.45 l 139.40 -253.45 l 139.40 -350.00 l 42.84 -350.00 z m 549.74 -253.45 l 646.29 -253.45 l 646.29 -350.00 l 549.74 -350.00 z m 42.84 -126.72 l 139.40 -126.72 l 139.40 -223.28 l 42.84 -223.28 z m 549.74 -126.72 l 646.29 -126.72 l 646.29 -223.28 l 549.74 -223.28 z m 42.84 0.00 l 139.40 0.00 l 139.40 -96.55 l 42.84 -96.55 z m 549.74 0.00 l 646.29 0.00 l 646.29 -96.55 l 549.74 -96.55 z "},"i":{"ha":689,"x_min":0,"x_max":0,"o":"m 296.29 -633.62 l 392.85 -633.62 l 392.85 -730.17 l 296.29 -730.17 z m 296.29 -380.17 l 392.85 -380.17 l 392.85 -476.72 l 296.29 -476.72 z m 296.29 -253.45 l 392.85 -253.45 l 392.85 -350.00 l 296.29 -350.00 z m 296.29 -126.72 l 392.85 -126.72 l 392.85 -223.28 l 296.29 -223.28 z m 296.29 0.00 l 392.85 0.00 l 392.85 -96.55 l 296.29 -96.55 z "},"j":{"ha":689,"x_min":0,"x_max":0,"o":"m 423.02 -760.35 l 519.57 -760.35 l 519.57 -856.90 l 423.02 -856.90 z m 296.29 -506.90 l 392.85 -506.90 l 392.85 -603.45 l 296.29 -603.45 z m 423.02 -506.90 l 519.57 -506.90 l 519.57 -603.45 l 423.02 -603.45 z m 423.02 -380.17 l 519.57 -380.17 l 519.57 -476.72 l 423.02 -476.72 z m 423.02 -253.45 l 519.57 -253.45 l 519.57 -350.00 l 423.02 -350.00 z m 42.84 -126.72 l 139.40 -126.72 l 139.40 -223.28 l 42.84 -223.28 z m 423.02 -126.72 l 519.57 -126.72 l 519.57 -223.28 l 423.02 -223.28 z m 169.57 0.00 l 266.12 0.00 l 266.12 -96.55 l 169.57 -96.55 z m 296.29 0.00 l 392.85 0.00 l 392.85 -96.55 l 296.29 -96.55 z "},"k":{"ha":689,"x_min":0,"x_max":0,"o":"m 42.84 -760.35 l 139.40 -760.35 l 139.40 -856.90 l 42.84 -856.90 z m 42.84 -633.62 l 139.40 -633.62 l 139.40 -730.17 l 42.84 -730.17 z m 42.84 -506.90 l 139.40 -506.90 l 139.40 -603.45 l 42.84 -603.45 z m 423.02 -506.90 l 519.57 -506.90 l 519.57 -603.45 l 423.02 -603.45 z m 42.84 -380.17 l 139.40 -380.17 l 139.40 -476.72 l 42.84 -476.72 z m 296.29 -380.17 l 392.85 -380.17 l 392.85 -476.72 l 296.29 -476.72 z m 42.84 -253.45 l 139.40 -253.45 l 139.40 -350.00 l 42.84 -350.00 z m 169.57 -253.45 l 266.12 -253.45 l 266.12 -350.00 l 169.57 -350.00 z m 42.84 -126.72 l 139.40 -126.72 l 139.40 -223.28 l 42.84 -223.28 z m 296.29 -126.72 l 392.85 -126.72 l 392.85 -223.28 l 296.29 -223.28 z m 42.84 0.00 l 139.40 0.00 l 139.40 -96.55 l 42.84 -96.55 z m 423.02 0.00 l 519.57 0.00 l 519.57 -96.55 l 423.02 -96.55 z "},"l":{"ha":689,"x_min":0,"x_max":0,"o":"m 169.57 -760.35 l 266.12 -760.35 l 266.12 -856.90 l 169.57 -856.90 z m 296.29 -760.35 l 392.85 -760.35 l 392.85 -856.90 l 296.29 -856.90 z m 296.29 -633.62 l 392.85 -633.62 l 392.85 -730.17 l 296.29 -730.17 z m 296.29 -506.90 l 392.85 -506.90 l 392.85 -603.45 l 296.29 -603.45 z m 296.29 -380.17 l 392.85 -380.17 l 392.85 -476.72 l 296.29 -476.72 z m 296.29 -253.45 l 392.85 -253.45 l 392.85 -350.00 l 296.29 -350.00 z m 296.29 -126.72 l 392.85 -126.72 l 392.85 -223.28 l 296.29 -223.28 z m 169.57 0.00 l 266.12 0.00 l 266.12 -96.55 l 169.57 -96.55 z m 296.29 0.00 l 392.85 0.00 l 392.85 -96.55 l 296.29 -96.55 z m 423.02 0.00 l 519.57 0.00 l 519.57 -96.55 l 423.02 -96.55 z "},"m":{"ha":689,"x_min":0,"x_max":0,"o":"m 42.84 -506.90 l 139.40 -506.90 l 139.40 -603.45 l 42.84 -603.45 z m 169.57 -506.90 l 266.12 -506.90 l 266.12 -603.45 l 169.57 -603.45 z m 423.02 -506.90 l 519.57 -506.90 l 519.57 -603.45 l 423.02 -603.45 z m 42.84 -380.17 l 139.40 -380.17 l 139.40 -476.72 l 42.84 -476.72 z m 296.29 -380.17 l 392.85 -380.17 l 392.85 -476.72 l 296.29 -476.72 z m 549.74 -380.17 l 646.29 -380.17 l 646.29 -476.72 l 549.74 -476.72 z m 42.84 -253.45 l 139.40 -253.45 l 139.40 -350.00 l 42.84 -350.00 z m 296.29 -253.45 l 392.85 -253.45 l 392.85 -350.00 l 296.29 -350.00 z m 549.74 -253.45 l 646.29 -253.45 l 646.29 -350.00 l 549.74 -350.00 z m 42.84 -126.72 l 139.40 -126.72 l 139.40 -223.28 l 42.84 -223.28 z m 549.74 -126.72 l 646.29 -126.72 l 646.29 -223.28 l 549.74 -223.28 z m 42.84 0.00 l 139.40 0.00 l 139.40 -96.55 l 42.84 -96.55 z m 549.74 0.00 l 646.29 0.00 l 646.29 -96.55 l 549.74 -96.55 z "},"n":{"ha":689,"x_min":0,"x_max":0,"o":"m 42.84 -506.90 l 139.40 -506.90 l 139.40 -603.45 l 42.84 -603.45 z m 296.29 -506.90 l 392.85 -506.90 l 392.85 -603.45 l 296.29 -603.45 z m 423.02 -506.90 l 519.57 -506.90 l 519.57 -603.45 l 423.02 -603.45 z m 549.74 -506.90 l 646.29 -506.90 l 646.29 -603.45 l 549.74 -603.45 z m 42.84 -380.17 l 139.40 -380.17 l 139.40 -476.72 l 42.84 -476.72 z m 169.57 -380.17 l 266.12 -380.17 l 266.12 -476.72 l 169.57 -476.72 z m 549.74 -380.17 l 646.29 -380.17 l 646.29 -476.72 l 549.74 -476.72 z m 42.84 -253.45 l 139.40 -253.45 l 139.40 -350.00 l 42.84 -350.00 z m 549.74 -253.45 l 646.29 -253.45 l 646.29 -350.00 l 549.74 -350.00 z m 42.84 -126.72 l 139.40 -126.72 l 139.40 -223.28 l 42.84 -223.28 z m 549.74 -126.72 l 646.29 -126.72 l 646.29 -223.28 l 549.74 -223.28 z m 42.84 0.00 l 139.40 0.00 l 139.40 -96.55 l 42.84 -96.55 z m 549.74 0.00 l 646.29 0.00 l 646.29 -96.55 l 549.74 -96.55 z "},"o":{"ha":689,"x_min":0,"x_max":0,"o":"m 169.57 -506.90 l 266.12 -506.90 l 266.12 -603.45 l 169.57 -603.45 z m 296.29 -506.90 l 392.85 -506.90 l 392.85 -603.45 l 296.29 -603.45 z m 423.02 -506.90 l 519.57 -506.90 l 519.57 -603.45 l 423.02 -603.45 z m 42.84 -380.17 l 139.40 -380.17 l 139.40 -476.72 l 42.84 -476.72 z m 549.74 -380.17 l 646.29 -380.17 l 646.29 -476.72 l 549.74 -476.72 z m 42.84 -253.45 l 139.40 -253.45 l 139.40 -350.00 l 42.84 -350.00 z m 549.74 -253.45 l 646.29 -253.45 l 646.29 -350.00 l 549.74 -350.00 z m 42.84 -126.72 l 139.40 -126.72 l 139.40 -223.28 l 42.84 -223.28 z m 549.74 -126.72 l 646.29 -126.72 l 646.29 -223.28 l 549.74 -223.28 z m 169.57 0.00 l 266.12 0.00 l 266.12 -96.55 l 169.57 -96.55 z m 296.29 0.00 l 392.85 0.00 l 392.85 -96.55 l 296.29 -96.55 z m 423.02 0.00 l 519.57 0.00 l 519.57 -96.55 l 423.02 -96.55 z "},"p":{"ha":689,"x_min":0,"x_max":0,"o":"m 42.84 -506.90 l 139.40 -506.90 l 139.40 -603.45 l 42.84 -603.45 z m 169.57 -506.90 l 266.12 -506.90 l 266.12 -603.45 l 169.57 -603.45 z m 296.29 -506.90 l 392.85 -506.90 l 392.85 -603.45 l 296.29 -603.45 z m 423.02 -506.90 l 519.57 -506.90 l 519.57 -603.45 l 423.02 -603.45 z m 42.84 -380.17 l 139.40 -380.17 l 139.40 -476.72 l 42.84 -476.72 z m 549.74 -380.17 l 646.29 -380.17 l 646.29 -476.72 l 549.74 -476.72 z m 42.84 -253.45 l 139.40 -253.45 l 139.40 -350.00 l 42.84 -350.00 z m 169.57 -253.45 l 266.12 -253.45 l 266.12 -350.00 l 169.57 -350.00 z m 296.29 -253.45 l 392.85 -253.45 l 392.85 -350.00 l 296.29 -350.00 z m 423.02 -253.45 l 519.57 -253.45 l 519.57 -350.00 l 423.02 -350.00 z m 42.84 -126.72 l 139.40 -126.72 l 139.40 -223.28 l 42.84 -223.28 z m 42.84 0.00 l 139.40 0.00 l 139.40 -96.55 l 42.84 -96.55 z "},"q":{"ha":689,"x_min":0,"x_max":0,"o":"m 169.57 -506.90 l 266.12 -506.90 l 266.12 -603.45 l 169.57 -603.45 z m 296.29 -506.90 l 392.85 -506.90 l 392.85 -603.45 l 296.29 -603.45 z m 549.74 -506.90 l 646.29 -506.90 l 646.29 -603.45 l 549.74 -603.45 z m 42.84 -380.17 l 139.40 -380.17 l 139.40 -476.72 l 42.84 -476.72 z m 423.02 -380.17 l 519.57 -380.17 l 519.57 -476.72 l 423.02 -476.72 z m 549.74 -380.17 l 646.29 -380.17 l 646.29 -476.72 l 549.74 -476.72 z m 169.57 -253.45 l 266.12 -253.45 l 266.12 -350.00 l 169.57 -350.00 z m 296.29 -253.45 l 392.85 -253.45 l 392.85 -350.00 l 296.29 -350.00 z m 423.02 -253.45 l 519.57 -253.45 l 519.57 -350.00 l 423.02 -350.00 z m 549.74 -253.45 l 646.29 -253.45 l 646.29 -350.00 l 549.74 -350.00 z m 549.74 -126.72 l 646.29 -126.72 l 646.29 -223.28 l 549.74 -223.28 z m 549.74 0.00 l 646.29 0.00 l 646.29 -96.55 l 549.74 -96.55 z "},"r":{"ha":689,"x_min":0,"x_max":0,"o":"m 42.84 -506.90 l 139.40 -506.90 l 139.40 -603.45 l 42.84 -603.45 z m 296.29 -506.90 l 392.85 -506.90 l 392.85 -603.45 l 296.29 -603.45 z m 423.02 -506.90 l 519.57 -506.90 l 519.57 -603.45 l 423.02 -603.45 z m 42.84 -380.17 l 139.40 -380.17 l 139.40 -476.72 l 42.84 -476.72 z m 169.57 -380.17 l 266.12 -380.17 l 266.12 -476.72 l 169.57 -476.72 z m 549.74 -380.17 l 646.29 -380.17 l 646.29 -476.72 l 549.74 -476.72 z m 42.84 -253.45 l 139.40 -253.45 l 139.40 -350.00 l 42.84 -350.00 z m 42.84 -126.72 l 139.40 -126.72 l 139.40 -223.28 l 42.84 -223.28 z m 42.84 0.00 l 139.40 0.00 l 139.40 -96.55 l 42.84 -96.55 z "},"s":{"ha":689,"x_min":0,"x_max":0,"o":"m 169.57 -506.90 l 266.12 -506.90 l 266.12 -603.45 l 169.57 -603.45 z m 296.29 -506.90 l 392.85 -506.90 l 392.85 -603.45 l 296.29 -603.45 z m 423.02 -506.90 l 519.57 -506.90 l 519.57 -603.45 l 423.02 -603.45 z m 42.84 -380.17 l 139.40 -380.17 l 139.40 -476.72 l 42.84 -476.72 z m 169.57 -253.45 l 266.12 -253.45 l 266.12 -350.00 l 169.57 -350.00 z m 296.29 -253.45 l 392.85 -253.45 l 392.85 -350.00 l 296.29 -350.00 z m 423.02 -253.45 l 519.57 -253.45 l 519.57 -350.00 l 423.02 -350.00 z m 549.74 -126.72 l 646.29 -126.72 l 646.29 -223.28 l 549.74 -223.28 z m 42.84 0.00 l 139.40 0.00 l 139.40 -96.55 l 42.84 -96.55 z m 169.57 0.00 l 266.12 0.00 l 266.12 -96.55 l 169.57 -96.55 z m 296.29 0.00 l 392.85 0.00 l 392.85 -96.55 l 296.29 -96.55 z m 423.02 0.00 l 519.57 0.00 l 519.57 -96.55 l 423.02 -96.55 z "},"t":{"ha":689,"x_min":0,"x_max":0,"o":"m 169.57 -760.35 l 266.12 -760.35 l 266.12 -856.90 l 169.57 -856.90 z m 169.57 -633.62 l 266.12 -633.62 l 266.12 -730.17 l 169.57 -730.17 z m 42.84 -506.90 l 139.40 -506.90 l 139.40 -603.45 l 42.84 -603.45 z m 169.57 -506.90 l 266.12 -506.90 l 266.12 -603.45 l 169.57 -603.45 z m 296.29 -506.90 l 392.85 -506.90 l 392.85 -603.45 l 296.29 -603.45 z m 169.57 -380.17 l 266.12 -380.17 l 266.12 -476.72 l 169.57 -476.72 z m 169.57 -253.45 l 266.12 -253.45 l 266.12 -350.00 l 169.57 -350.00 z m 169.57 -126.72 l 266.12 -126.72 l 266.12 -223.28 l 169.57 -223.28 z m 549.74 -126.72 l 646.29 -126.72 l 646.29 -223.28 l 549.74 -223.28 z m 296.29 0.00 l 392.85 0.00 l 392.85 -96.55 l 296.29 -96.55 z m 423.02 0.00 l 519.57 0.00 l 519.57 -96.55 l 423.02 -96.55 z "},"u":{"ha":689,"x_min":0,"x_max":0,"o":"m 42.84 -506.90 l 139.40 -506.90 l 139.40 -603.45 l 42.84 -603.45 z m 549.74 -506.90 l 646.29 -506.90 l 646.29 -603.45 l 549.74 -603.45 z m 42.84 -380.17 l 139.40 -380.17 l 139.40 -476.72 l 42.84 -476.72 z m 549.74 -380.17 l 646.29 -380.17 l 646.29 -476.72 l 549.74 -476.72 z m 42.84 -253.45 l 139.40 -253.45 l 139.40 -350.00 l 42.84 -350.00 z m 549.74 -253.45 l 646.29 -253.45 l 646.29 -350.00 l 549.74 -350.00 z m 42.84 -126.72 l 139.40 -126.72 l 139.40 -223.28 l 42.84 -223.28 z m 423.02 -126.72 l 519.57 -126.72 l 519.57 -223.28 l 423.02 -223.28 z m 549.74 -126.72 l 646.29 -126.72 l 646.29 -223.28 l 549.74 -223.28 z m 169.57 0.00 l 266.12 0.00 l 266.12 -96.55 l 169.57 -96.55 z m 296.29 0.00 l 392.85 0.00 l 392.85 -96.55 l 296.29 -96.55 z m 549.74 0.00 l 646.29 0.00 l 646.29 -96.55 l 549.74 -96.55 z "},"v":{"ha":689,"x_min":0,"x_max":0,"o":"m 42.84 -506.90 l 139.40 -506.90 l 139.40 -603.45 l 42.84 -603.45 z m 549.74 -506.90 l 646.29 -506.90 l 646.29 -603.45 l 549.74 -603.45 z m 42.84 -380.17 l 139.40 -380.17 l 139.40 -476.72 l 42.84 -476.72 z m 549.74 -380.17 l 646.29 -380.17 l 646.29 -476.72 l 549.74 -476.72 z m 42.84 -253.45 l 139.40 -253.45 l 139.40 -350.00 l 42.84 -350.00 z m 549.74 -253.45 l 646.29 -253.45 l 646.29 -350.00 l 549.74 -350.00 z m 169.57 -126.72 l 266.12 -126.72 l 266.12 -223.28 l 169.57 -223.28 z m 423.02 -126.72 l 519.57 -126.72 l 519.57 -223.28 l 423.02 -223.28 z m 296.29 0.00 l 392.85 0.00 l 392.85 -96.55 l 296.29 -96.55 z "},"w":{"ha":689,"x_min":0,"x_max":0,"o":"m 42.84 -506.90 l 139.40 -506.90 l 139.40 -603.45 l 42.84 -603.45 z m 549.74 -506.90 l 646.29 -506.90 l 646.29 -603.45 l 549.74 -603.45 z m 42.84 -380.17 l 139.40 -380.17 l 139.40 -476.72 l 42.84 -476.72 z m 549.74 -380.17 l 646.29 -380.17 l 646.29 -476.72 l 549.74 -476.72 z m 42.84 -253.45 l 139.40 -253.45 l 139.40 -350.00 l 42.84 -350.00 z m 296.29 -253.45 l 392.85 -253.45 l 392.85 -350.00 l 296.29 -350.00 z m 549.74 -253.45 l 646.29 -253.45 l 646.29 -350.00 l 549.74 -350.00 z m 42.84 -126.72 l 139.40 -126.72 l 139.40 -223.28 l 42.84 -223.28 z m 296.29 -126.72 l 392.85 -126.72 l 392.85 -223.28 l 296.29 -223.28 z m 549.74 -126.72 l 646.29 -126.72 l 646.29 -223.28 l 549.74 -223.28 z m 169.57 0.00 l 266.12 0.00 l 266.12 -96.55 l 169.57 -96.55 z m 423.02 0.00 l 519.57 0.00 l 519.57 -96.55 l 423.02 -96.55 z "},"x":{"ha":689,"x_min":0,"x_max":0,"o":"m 42.84 -506.90 l 139.40 -506.90 l 139.40 -603.45 l 42.84 -603.45 z m 549.74 -506.90 l 646.29 -506.90 l 646.29 -603.45 l 549.74 -603.45 z m 169.57 -380.17 l 266.12 -380.17 l 266.12 -476.72 l 169.57 -476.72 z m 423.02 -380.17 l 519.57 -380.17 l 519.57 -476.72 l 423.02 -476.72 z m 296.29 -253.45 l 392.85 -253.45 l 392.85 -350.00 l 296.29 -350.00 z m 169.57 -126.72 l 266.12 -126.72 l 266.12 -223.28 l 169.57 -223.28 z m 423.02 -126.72 l 519.57 -126.72 l 519.57 -223.28 l 423.02 -223.28 z m 42.84 0.00 l 139.40 0.00 l 139.40 -96.55 l 42.84 -96.55 z m 549.74 0.00 l 646.29 0.00 l 646.29 -96.55 l 549.74 -96.55 z "},"y":{"ha":689,"x_min":0,"x_max":0,"o":"m 42.84 -506.90 l 139.40 -506.90 l 139.40 -603.45 l 42.84 -603.45 z m 549.74 -506.90 l 646.29 -506.90 l 646.29 -603.45 l 549.74 -603.45 z m 42.84 -380.17 l 139.40 -380.17 l 139.40 -476.72 l 42.84 -476.72 z m 549.74 -380.17 l 646.29 -380.17 l 646.29 -476.72 l 549.74 -476.72 z m 169.57 -253.45 l 266.12 -253.45 l 266.12 -350.00 l 169.57 -350.00 z m 296.29 -253.45 l 392.85 -253.45 l 392.85 -350.00 l 296.29 -350.00 z m 423.02 -253.45 l 519.57 -253.45 l 519.57 -350.00 l 423.02 -350.00 z m 549.74 -253.45 l 646.29 -253.45 l 646.29 -350.00 l 549.74 -350.00 z m 549.74 -126.72 l 646.29 -126.72 l 646.29 -223.28 l 549.74 -223.28 z m 169.57 0.00 l 266.12 0.00 l 266.12 -96.55 l 169.57 -96.55 z m 296.29 0.00 l 392.85 0.00 l 392.85 -96.55 l 296.29 -96.55 z m 423.02 0.00 l 519.57 0.00 l 519.57 -96.55 l 423.02 -96.55 z "},"z":{"ha":689,"x_min":0,"x_max":0,"o":"m 42.84 -506.90 l 139.40 -506.90 l 139.40 -603.45 l 42.84 -603.45 z m 169.57 -506.90 l 266.12 -506.90 l 266.12 -603.45 l 169.57 -603.45 z m 296.29 -506.90 l 392.85 -506.90 l 392.85 -603.45 l 296.29 -603.45 z m 423.02 -506.90 l 519.57 -506.90 l 519.57 -603.45 l 423.02 -603.45 z m 549.74 -506.90 l 646.29 -506.90 l 646.29 -603.45 l 549.74 -603.45 z m 423.02 -380.17 l 519.57 -380.17 l 519.57 -476.72 l 423.02 -476.72 z m 296.29 -253.45 l 392.85 -253.45 l 392.85 -350.00 l 296.29 -350.00 z m 169.57 -126.72 l 266.12 -126.72 l 266.12 -223.28 l 169.57 -223.28 z m 42.84 0.00 l 139.40 0.00 l 139.40 -96.55 l 42.84 -96.55 z m 169.57 0.00 l 266.12 0.00 l 266.12 -96.55 l 169.57 -96.55 z m 296.29 0.00 l 392.85 0.00 l 392.85 -96.55 l 296.29 -96.55 z m 423.02 0.00 l 519.57 0.00 l 519.57 -96.55 l 423.02 -96.55 z m 549.74 0.00 l 646.29 0.00 l 646.29 -96.55 l 549.74 -96.55 z "},"A":{"ha":689,"x_min":0,"x_max":0,"o":"m 169.57 -760.35 l 266.12 -760.35 l 266.12 -856.90 l 169.57 -856.90 z m 296.29 -760.35 l 392.85 -760.35 l 392.85 -856.90 l 296.29 -856.90 z m 423.02 -760.35 l 519.57 -760.35 l 519.57 -856.90 l 423.02 -856.90 z m 42.84 -633.62 l 139.40 -633.62 l 139.40 -730.17 l 42.84 -730.17 z m 549.74 -633.62 l 646.29 -633.62 l 646.29 -730.17 l 549.74 -730.17 z m 42.84 -506.90 l 139.40 -506.90 l 139.40 -603.45 l 42.84 -603.45 z m 549.74 -506.90 l 646.29 -506.90 l 646.29 -603.45 l 549.74 -603.45 z m 42.84 -380.17 l 139.40 -380.17 l 139.40 -476.72 l 42.84 -476.72 z m 549.74 -380.17 l 646.29 -380.17 l 646.29 -476.72 l 549.74 -476.72 z m 42.84 -253.45 l 139.40 -253.45 l 139.40 -350.00 l 42.84 -350.00 z m 169.57 -253.45 l 266.12 -253.45 l 266.12 -350.00 l 169.57 -350.00 z m 296.29 -253.45 l 392.85 -253.45 l 392.85 -350.00 l 296.29 -350.00 z m 423.02 -253.45 l 519.57 -253.45 l 519.57 -350.00 l 423.02 -350.00 z m 549.74 -253.45 l 646.29 -253.45 l 646.29 -350.00 l 549.74 -350.00 z m 42.84 -126.72 l 139.40 -126.72 l 139.40 -223.28 l 42.84 -223.28 z m 549.74 -126.72 l 646.29 -126.72 l 646.29 -223.28 l 549.74 -223.28 z m 42.84 0.00 l 139.40 0.00 l 139.40 -96.55 l 42.84 -96.55 z m 549.74 0.00 l 646.29 0.00 l 646.29 -96.55 l 549.74 -96.55 z "},"B":{"ha":689,"x_min":0,"x_max":0,"o":"m 42.84 -760.35 l 139.40 -760.35 l 139.40 -856.90 l 42.84 -856.90 z m 169.57 -760.35 l 266.12 -760.35 l 266.12 -856.90 l 169.57 -856.90 z m 296.29 -760.35 l 392.85 -760.35 l 392.85 -856.90 l 296.29 -856.90 z m 423.02 -760.35 l 519.57 -760.35 l 519.57 -856.90 l 423.02 -856.90 z m 42.84 -633.62 l 139.40 -633.62 l 139.40 -730.17 l 42.84 -730.17 z m 549.74 -633.62 l 646.29 -633.62 l 646.29 -730.17 l 549.74 -730.17 z m 42.84 -506.90 l 139.40 -506.90 l 139.40 -603.45 l 42.84 -603.45 z m 549.74 -506.90 l 646.29 -506.90 l 646.29 -603.45 l 549.74 -603.45 z m 42.84 -380.17 l 139.40 -380.17 l 139.40 -476.72 l 42.84 -476.72 z m 169.57 -380.17 l 266.12 -380.17 l 266.12 -476.72 l 169.57 -476.72 z m 296.29 -380.17 l 392.85 -380.17 l 392.85 -476.72 l 296.29 -476.72 z m 423.02 -380.17 l 519.57 -380.17 l 519.57 -476.72 l 423.02 -476.72 z m 42.84 -253.45 l 139.40 -253.45 l 139.40 -350.00 l 42.84 -350.00 z m 549.74 -253.45 l 646.29 -253.45 l 646.29 -350.00 l 549.74 -350.00 z m 42.84 -126.72 l 139.40 -126.72 l 139.40 -223.28 l 42.84 -223.28 z m 549.74 -126.72 l 646.29 -126.72 l 646.29 -223.28 l 549.74 -223.28 z m 42.84 0.00 l 139.40 0.00 l 139.40 -96.55 l 42.84 -96.55 z m 169.57 0.00 l 266.12 0.00 l 266.12 -96.55 l 169.57 -96.55 z m 296.29 0.00 l 392.85 0.00 l 392.85 -96.55 l 296.29 -96.55 z m 423.02 0.00 l 519.57 0.00 l 519.57 -96.55 l 423.02 -96.55 z "},"C":{"ha":689,"x_min":0,"x_max":0,"o":"m 169.57 -760.35 l 266.12 -760.35 l 266.12 -856.90 l 169.57 -856.90 z m 296.29 -760.35 l 392.85 -760.35 l 392.85 -856.90 l 296.29 -856.90 z m 423.02 -760.35 l 519.57 -760.35 l 519.57 -856.90 l 423.02 -856.90 z m 42.84 -633.62 l 139.40 -633.62 l 139.40 -730.17 l 42.84 -730.17 z m 549.74 -633.62 l 646.29 -633.62 l 646.29 -730.17 l 549.74 -730.17 z m 42.84 -506.90 l 139.40 -506.90 l 139.40 -603.45 l 42.84 -603.45 z m 42.84 -380.17 l 139.40 -380.17 l 139.40 -476.72 l 42.84 -476.72 z m 42.84 -253.45 l 139.40 -253.45 l 139.40 -350.00 l 42.84 -350.00 z m 42.84 -126.72 l 139.40 -126.72 l 139.40 -223.28 l 42.84 -223.28 z m 549.74 -126.72 l 646.29 -126.72 l 646.29 -223.28 l 549.74 -223.28 z m 169.57 0.00 l 266.12 0.00 l 266.12 -96.55 l 169.57 -96.55 z m 296.29 0.00 l 392.85 0.00 l 392.85 -96.55 l 296.29 -96.55 z m 423.02 0.00 l 519.57 0.00 l 519.57 -96.55 l 423.02 -96.55 z "},"D":{"ha":689,"x_min":0,"x_max":0,"o":"m 42.84 -760.35 l 139.40 -760.35 l 139.40 -856.90 l 42.84 -856.90 z m 169.57 -760.35 l 266.12 -760.35 l 266.12 -856.90 l 169.57 -856.90 z m 296.29 -760.35 l 392.85 -760.35 l 392.85 -856.90 l 296.29 -856.90 z m 42.84 -633.62 l 139.40 -633.62 l 139.40 -730.17 l 42.84 -730.17 z m 423.02 -633.62 l 519.57 -633.62 l 519.57 -730.17 l 423.02 -730.17 z m 42.84 -506.90 l 139.40 -506.90 l 139.40 -603.45 l 42.84 -603.45 z m 549.74 -506.90 l 646.29 -506.90 l 646.29 -603.45 l 549.74 -603.45 z m 42.84 -380.17 l 139.40 -380.17 l 139.40 -476.72 l 42.84 -476.72 z m 549.74 -380.17 l 646.29 -380.17 l 646.29 -476.72 l 549.74 -476.72 z m 42.84 -253.45 l 139.40 -253.45 l 139.40 -350.00 l 42.84 -350.00 z m 549.74 -253.45 l 646.29 -253.45 l 646.29 -350.00 l 549.74 -350.00 z m 42.84 -126.72 l 139.40 -126.72 l 139.40 -223.28 l 42.84 -223.28 z m 423.02 -126.72 l 519.57 -126.72 l 519.57 -223.28 l 423.02 -223.28 z m 42.84 0.00 l 139.40 0.00 l 139.40 -96.55 l 42.84 -96.55 z m 169.57 0.00 l 266.12 0.00 l 266.12 -96.55 l 169.57 -96.55 z m 296.29 0.00 l 392.85 0.00 l 392.85 -96.55 l 296.29 -96.55 z "},"E":{"ha":689,"x_min":0,"x_max":0,"o":"m 42.84 -760.35 l 139.40 -760.35 l 139.40 -856.90 l 42.84 -856.90 z m 169.57 -760.35 l 266.12 -760.35 l 266.12 -856.90 l 169.57 -856.90 z m 296.29 -760.35 l 392.85 -760.35 l 392.85 -856.90 l 296.29 -856.90 z m 423.02 -760.35 l 519.57 -760.35 l 519.57 -856.90 l 423.02 -856.90 z m 549.74 -760.35 l 646.29 -760.35 l 646.29 -856.90 l 549.74 -856.90 z m 42.84 -633.62 l 139.40 -633.62 l 139.40 -730.17 l 42.84 -730.17 z m 42.84 -506.90 l 139.40 -506.90 l 139.40 -603.45 l 42.84 -603.45 z m 42.84 -380.17 l 139.40 -380.17 l 139.40 -476.72 l 42.84 -476.72 z m 169.57 -380.17 l 266.12 -380.17 l 266.12 -476.72 l 169.57 -476.72 z m 296.29 -380.17 l 392.85 -380.17 l 392.85 -476.72 l 296.29 -476.72 z m 423.02 -380.17 l 519.57 -380.17 l 519.57 -476.72 l 423.02 -476.72 z m 549.74 -380.17 l 646.29 -380.17 l 646.29 -476.72 l 549.74 -476.72 z m 42.84 -253.45 l 139.40 -253.45 l 139.40 -350.00 l 42.84 -350.00 z m 42.84 -126.72 l 139.40 -126.72 l 139.40 -223.28 l 42.84 -223.28 z m 42.84 0.00 l 139.40 0.00 l 139.40 -96.55 l 42.84 -96.55 z m 169.57 0.00 l 266.12 0.00 l 266.12 -96.55 l 169.57 -96.55 z m 296.29 0.00 l 392.85 0.00 l 392.85 -96.55 l 296.29 -96.55 z m 423.02 0.00 l 519.57 0.00 l 519.57 -96.55 l 423.02 -96.55 z m 549.74 0.00 l 646.29 0.00 l 646.29 -96.55 l 549.74 -96.55 z "},"F":{"ha":689,"x_min":0,"x_max":0,"o":"m 42.84 -760.35 l 139.40 -760.35 l 139.40 -856.90 l 42.84 -856.90 z m 169.57 -760.35 l 266.12 -760.35 l 266.12 -856.90 l 169.57 -856.90 z m 296.29 -760.35 l 392.85 -760.35 l 392.85 -856.90 l 296.29 -856.90 z m 423.02 -760.35 l 519.57 -760.35 l 519.57 -856.90 l 423.02 -856.90 z m 549.74 -760.35 l 646.29 -760.35 l 646.29 -856.90 l 549.74 -856.90 z m 42.84 -633.62 l 139.40 -633.62 l 139.40 -730.17 l 42.84 -730.17 z m 42.84 -506.90 l 139.40 -506.90 l 139.40 -603.45 l 42.84 -603.45 z m 42.84 -380.17 l 139.40 -380.17 l 139.40 -476.72 l 42.84 -476.72 z m 169.57 -380.17 l 266.12 -380.17 l 266.12 -476.72 l 169.57 -476.72 z m 296.29 -380.17 l 392.85 -380.17 l 392.85 -476.72 l 296.29 -476.72 z m 423.02 -380.17 l 519.57 -380.17 l 519.57 -476.72 l 423.02 -476.72 z m 549.74 -380.17 l 646.29 -380.17 l 646.29 -476.72 l 549.74 -476.72 z m 42.84 -253.45 l 139.40 -253.45 l 139.40 -350.00 l 42.84 -350.00 z m 42.84 -126.72 l 139.40 -126.72 l 139.40 -223.28 l 42.84 -223.28 z m 42.84 0.00 l 139.40 0.00 l 139.40 -96.55 l 42.84 -96.55 z "},"G":{"ha":689,"x_min":0,"x_max":0,"o":"m 169.57 -760.35 l 266.12 -760.35 l 266.12 -856.90 l 169.57 -856.90 z m 296.29 -760.35 l 392.85 -760.35 l 392.85 -856.90 l 296.29 -856.90 z m 423.02 -760.35 l 519.57 -760.35 l 519.57 -856.90 l 423.02 -856.90 z m 549.74 -760.35 l 646.29 -760.35 l 646.29 -856.90 l 549.74 -856.90 z m 42.84 -633.62 l 139.40 -633.62 l 139.40 -730.17 l 42.84 -730.17 z m 549.74 -633.62 l 646.29 -633.62 l 646.29 -730.17 l 549.74 -730.17 z m 42.84 -506.90 l 139.40 -506.90 l 139.40 -603.45 l 42.84 -603.45 z m 42.84 -380.17 l 139.40 -380.17 l 139.40 -476.72 l 42.84 -476.72 z m 296.29 -380.17 l 392.85 -380.17 l 392.85 -476.72 l 296.29 -476.72 z m 423.02 -380.17 l 519.57 -380.17 l 519.57 -476.72 l 423.02 -476.72 z m 549.74 -380.17 l 646.29 -380.17 l 646.29 -476.72 l 549.74 -476.72 z m 42.84 -253.45 l 139.40 -253.45 l 139.40 -350.00 l 42.84 -350.00 z m 549.74 -253.45 l 646.29 -253.45 l 646.29 -350.00 l 549.74 -350.00 z m 42.84 -126.72 l 139.40 -126.72 l 139.40 -223.28 l 42.84 -223.28 z m 549.74 -126.72 l 646.29 -126.72 l 646.29 -223.28 l 549.74 -223.28 z m 169.57 0.00 l 266.12 0.00 l 266.12 -96.55 l 169.57 -96.55 z m 296.29 0.00 l 392.85 0.00 l 392.85 -96.55 l 296.29 -96.55 z m 423.02 0.00 l 519.57 0.00 l 519.57 -96.55 l 423.02 -96.55 z m 549.74 0.00 l 646.29 0.00 l 646.29 -96.55 l 549.74 -96.55 z "},"H":{"ha":689,"x_min":0,"x_max":0,"o":"m 42.84 -760.35 l 139.40 -760.35 l 139.40 -856.90 l 42.84 -856.90 z m 549.74 -760.35 l 646.29 -760.35 l 646.29 -856.90 l 549.74 -856.90 z m 42.84 -633.62 l 139.40 -633.62 l 139.40 -730.17 l 42.84 -730.17 z m 549.74 -633.62 l 646.29 -633.62 l 646.29 -730.17 l 549.74 -730.17 z m 42.84 -506.90 l 139.40 -506.90 l 139.40 -603.45 l 42.84 -603.45 z m 549.74 -506.90 l 646.29 -506.90 l 646.29 -603.45 l 549.74 -603.45 z m 42.84 -380.17 l 139.40 -380.17 l 139.40 -476.72 l 42.84 -476.72 z m 169.57 -380.17 l 266.12 -380.17 l 266.12 -476.72 l 169.57 -476.72 z m 296.29 -380.17 l 392.85 -380.17 l 392.85 -476.72 l 296.29 -476.72 z m 423.02 -380.17 l 519.57 -380.17 l 519.57 -476.72 l 423.02 -476.72 z m 549.74 -380.17 l 646.29 -380.17 l 646.29 -476.72 l 549.74 -476.72 z m 42.84 -253.45 l 139.40 -253.45 l 139.40 -350.00 l 42.84 -350.00 z m 549.74 -253.45 l 646.29 -253.45 l 646.29 -350.00 l 549.74 -350.00 z m 42.84 -126.72 l 139.40 -126.72 l 139.40 -223.28 l 42.84 -223.28 z m 549.74 -126.72 l 646.29 -126.72 l 646.29 -223.28 l 549.74 -223.28 z m 42.84 0.00 l 139.40 0.00 l 139.40 -96.55 l 42.84 -96.55 z m 549.74 0.00 l 646.29 0.00 l 646.29 -96.55 l 549.74 -96.55 z "},"I":{"ha":689,"x_min":0,"x_max":0,"o":"m 169.57 -760.35 l 266.12 -760.35 l 266.12 -856.90 l 169.57 -856.90 z m 296.29 -760.35 l 392.85 -760.35 l 392.85 -856.90 l 296.29 -856.90 z m 423.02 -760.35 l 519.57 -760.35 l 519.57 -856.90 l 423.02 -856.90 z m 296.29 -633.62 l 392.85 -633.62 l 392.85 -730.17 l 296.29 -730.17 z m 296.29 -506.90 l 392.85 -506.90 l 392.85 -603.45 l 296.29 -603.45 z m 296.29 -380.17 l 392.85 -380.17 l 392.85 -476.72 l 296.29 -476.72 z m 296.29 -253.45 l 392.85 -253.45 l 392.85 -350.00 l 296.29 -350.00 z m 296.29 -126.72 l 392.85 -126.72 l 392.85 -223.28 l 296.29 -223.28 z m 169.57 0.00 l 266.12 0.00 l 266.12 -96.55 l 169.57 -96.55 z m 296.29 0.00 l 392.85 0.00 l 392.85 -96.55 l 296.29 -96.55 z m 423.02 0.00 l 519.57 0.00 l 519.57 -96.55 l 423.02 -96.55 z "},"J":{"ha":689,"x_min":0,"x_max":0,"o":"m 296.29 -760.35 l 392.85 -760.35 l 392.85 -856.90 l 296.29 -856.90 z m 423.02 -760.35 l 519.57 -760.35 l 519.57 -856.90 l 423.02 -856.90 z m 549.74 -760.35 l 646.29 -760.35 l 646.29 -856.90 l 549.74 -856.90 z m 423.02 -633.62 l 519.57 -633.62 l 519.57 -730.17 l 423.02 -730.17 z m 423.02 -506.90 l 519.57 -506.90 l 519.57 -603.45 l 423.02 -603.45 z m 423.02 -380.17 l 519.57 -380.17 l 519.57 -476.72 l 423.02 -476.72 z m 423.02 -253.45 l 519.57 -253.45 l 519.57 -350.00 l 423.02 -350.00 z m 42.84 -126.72 l 139.40 -126.72 l 139.40 -223.28 l 42.84 -223.28 z m 423.02 -126.72 l 519.57 -126.72 l 519.57 -223.28 l 423.02 -223.28 z m 169.57 0.00 l 266.12 0.00 l 266.12 -96.55 l 169.57 -96.55 z m 296.29 0.00 l 392.85 0.00 l 392.85 -96.55 l 296.29 -96.55 z "},"K":{"ha":689,"x_min":0,"x_max":0,"o":"m 42.84 -760.35 l 139.40 -760.35 l 139.40 -856.90 l 42.84 -856.90 z m 549.74 -760.35 l 646.29 -760.35 l 646.29 -856.90 l 549.74 -856.90 z m 42.84 -633.62 l 139.40 -633.62 l 139.40 -730.17 l 42.84 -730.17 z m 423.02 -633.62 l 519.57 -633.62 l 519.57 -730.17 l 423.02 -730.17 z m 42.84 -506.90 l 139.40 -506.90 l 139.40 -603.45 l 42.84 -603.45 z m 296.29 -506.90 l 392.85 -506.90 l 392.85 -603.45 l 296.29 -603.45 z m 42.84 -380.17 l 139.40 -380.17 l 139.40 -476.72 l 42.84 -476.72 z m 169.57 -380.17 l 266.12 -380.17 l 266.12 -476.72 l 169.57 -476.72 z m 42.84 -253.45 l 139.40 -253.45 l 139.40 -350.00 l 42.84 -350.00 z m 296.29 -253.45 l 392.85 -253.45 l 392.85 -350.00 l 296.29 -350.00 z m 42.84 -126.72 l 139.40 -126.72 l 139.40 -223.28 l 42.84 -223.28 z m 423.02 -126.72 l 519.57 -126.72 l 519.57 -223.28 l 423.02 -223.28 z m 42.84 0.00 l 139.40 0.00 l 139.40 -96.55 l 42.84 -96.55 z m 549.74 0.00 l 646.29 0.00 l 646.29 -96.55 l 549.74 -96.55 z "},"L":{"ha":689,"x_min":0,"x_max":0,"o":"m 42.84 -760.35 l 139.40 -760.35 l 139.40 -856.90 l 42.84 -856.90 z m 42.84 -633.62 l 139.40 -633.62 l 139.40 -730.17 l 42.84 -730.17 z m 42.84 -506.90 l 139.40 -506.90 l 139.40 -603.45 l 42.84 -603.45 z m 42.84 -380.17 l 139.40 -380.17 l 139.40 -476.72 l 42.84 -476.72 z m 42.84 -253.45 l 139.40 -253.45 l 139.40 -350.00 l 42.84 -350.00 z m 42.84 -126.72 l 139.40 -126.72 l 139.40 -223.28 l 42.84 -223.28 z m 42.84 0.00 l 139.40 0.00 l 139.40 -96.55 l 42.84 -96.55 z m 169.57 0.00 l 266.12 0.00 l 266.12 -96.55 l 169.57 -96.55 z m 296.29 0.00 l 392.85 0.00 l 392.85 -96.55 l 296.29 -96.55 z m 423.02 0.00 l 519.57 0.00 l 519.57 -96.55 l 423.02 -96.55 z m 549.74 0.00 l 646.29 0.00 l 646.29 -96.55 l 549.74 -96.55 z "},"M":{"ha":689,"x_min":0,"x_max":0,"o":"m 42.84 -760.35 l 139.40 -760.35 l 139.40 -856.90 l 42.84 -856.90 z m 549.74 -760.35 l 646.29 -760.35 l 646.29 -856.90 l 549.74 -856.90 z m 42.84 -633.62 l 139.40 -633.62 l 139.40 -730.17 l 42.84 -730.17 z m 169.57 -633.62 l 266.12 -633.62 l 266.12 -730.17 l 169.57 -730.17 z m 423.02 -633.62 l 519.57 -633.62 l 519.57 -730.17 l 423.02 -730.17 z m 549.74 -633.62 l 646.29 -633.62 l 646.29 -730.17 l 549.74 -730.17 z m 42.84 -506.90 l 139.40 -506.90 l 139.40 -603.45 l 42.84 -603.45 z m 296.29 -506.90 l 392.85 -506.90 l 392.85 -603.45 l 296.29 -603.45 z m 549.74 -506.90 l 646.29 -506.90 l 646.29 -603.45 l 549.74 -603.45 z m 42.84 -380.17 l 139.40 -380.17 l 139.40 -476.72 l 42.84 -476.72 z m 296.29 -380.17 l 392.85 -380.17 l 392.85 -476.72 l 296.29 -476.72 z m 549.74 -380.17 l 646.29 -380.17 l 646.29 -476.72 l 549.74 -476.72 z m 42.84 -253.45 l 139.40 -253.45 l 139.40 -350.00 l 42.84 -350.00 z m 549.74 -253.45 l 646.29 -253.45 l 646.29 -350.00 l 549.74 -350.00 z m 42.84 -126.72 l 139.40 -126.72 l 139.40 -223.28 l 42.84 -223.28 z m 549.74 -126.72 l 646.29 -126.72 l 646.29 -223.28 l 549.74 -223.28 z m 42.84 0.00 l 139.40 0.00 l 139.40 -96.55 l 42.84 -96.55 z m 549.74 0.00 l 646.29 0.00 l 646.29 -96.55 l 549.74 -96.55 z "},"N":{"ha":689,"x_min":0,"x_max":0,"o":"m 42.84 -760.35 l 139.40 -760.35 l 139.40 -856.90 l 42.84 -856.90 z m 549.74 -760.35 l 646.29 -760.35 l 646.29 -856.90 l 549.74 -856.90 z m 42.84 -633.62 l 139.40 -633.62 l 139.40 -730.17 l 42.84 -730.17 z m 549.74 -633.62 l 646.29 -633.62 l 646.29 -730.17 l 549.74 -730.17 z m 42.84 -506.90 l 139.40 -506.90 l 139.40 -603.45 l 42.84 -603.45 z m 169.57 -506.90 l 266.12 -506.90 l 266.12 -603.45 l 169.57 -603.45 z m 549.74 -506.90 l 646.29 -506.90 l 646.29 -603.45 l 549.74 -603.45 z m 42.84 -380.17 l 139.40 -380.17 l 139.40 -476.72 l 42.84 -476.72 z m 296.29 -380.17 l 392.85 -380.17 l 392.85 -476.72 l 296.29 -476.72 z m 549.74 -380.17 l 646.29 -380.17 l 646.29 -476.72 l 549.74 -476.72 z m 42.84 -253.45 l 139.40 -253.45 l 139.40 -350.00 l 42.84 -350.00 z m 423.02 -253.45 l 519.57 -253.45 l 519.57 -350.00 l 423.02 -350.00 z m 549.74 -253.45 l 646.29 -253.45 l 646.29 -350.00 l 549.74 -350.00 z m 42.84 -126.72 l 139.40 -126.72 l 139.40 -223.28 l 42.84 -223.28 z m 549.74 -126.72 l 646.29 -126.72 l 646.29 -223.28 l 549.74 -223.28 z m 42.84 0.00 l 139.40 0.00 l 139.40 -96.55 l 42.84 -96.55 z m 549.74 0.00 l 646.29 0.00 l 646.29 -96.55 l 549.74 -96.55 z "},"O":{"ha":689,"x_min":0,"x_max":0,"o":"m 169.57 -760.35 l 266.12 -760.35 l 266.12 -856.90 l 169.57 -856.90 z m 296.29 -760.35 l 392.85 -760.35 l 392.85 -856.90 l 296.29 -856.90 z m 423.02 -760.35 l 519.57 -760.35 l 519.57 -856.90 l 423.02 -856.90 z m 42.84 -633.62 l 139.40 -633.62 l 139.40 -730.17 l 42.84 -730.17 z m 549.74 -633.62 l 646.29 -633.62 l 646.29 -730.17 l 549.74 -730.17 z m 42.84 -506.90 l 139.40 -506.90 l 139.40 -603.45 l 42.84 -603.45 z m 549.74 -506.90 l 646.29 -506.90 l 646.29 -603.45 l 549.74 -603.45 z m 42.84 -380.17 l 139.40 -380.17 l 139.40 -476.72 l 42.84 -476.72 z m 549.74 -380.17 l 646.29 -380.17 l 646.29 -476.72 l 549.74 -476.72 z m 42.84 -253.45 l 139.40 -253.45 l 139.40 -350.00 l 42.84 -350.00 z m 549.74 -253.45 l 646.29 -253.45 l 646.29 -350.00 l 549.74 -350.00 z m 42.84 -126.72 l 139.40 -126.72 l 139.40 -223.28 l 42.84 -223.28 z m 549.74 -126.72 l 646.29 -126.72 l 646.29 -223.28 l 549.74 -223.28 z m 169.57 0.00 l 266.12 0.00 l 266.12 -96.55 l 169.57 -96.55 z m 296.29 0.00 l 392.85 0.00 l 392.85 -96.55 l 296.29 -96.55 z m 423.02 0.00 l 519.57 0.00 l 519.57 -96.55 l 423.02 -96.55 z "},"P":{"ha":689,"x_min":0,"x_max":0,"o":"m 42.84 -760.35 l 139.40 -760.35 l 139.40 -856.90 l 42.84 -856.90 z m 169.57 -760.35 l 266.12 -760.35 l 266.12 -856.90 l 169.57 -856.90 z m 296.29 -760.35 l 392.85 -760.35 l 392.85 -856.90 l 296.29 -856.90 z m 423.02 -760.35 l 519.57 -760.35 l 519.57 -856.90 l 423.02 -856.90 z m 42.84 -633.62 l 139.40 -633.62 l 139.40 -730.17 l 42.84 -730.17 z m 549.74 -633.62 l 646.29 -633.62 l 646.29 -730.17 l 549.74 -730.17 z m 42.84 -506.90 l 139.40 -506.90 l 139.40 -603.45 l 42.84 -603.45 z m 549.74 -506.90 l 646.29 -506.90 l 646.29 -603.45 l 549.74 -603.45 z m 42.84 -380.17 l 139.40 -380.17 l 139.40 -476.72 l 42.84 -476.72 z m 169.57 -380.17 l 266.12 -380.17 l 266.12 -476.72 l 169.57 -476.72 z m 296.29 -380.17 l 392.85 -380.17 l 392.85 -476.72 l 296.29 -476.72 z m 423.02 -380.17 l 519.57 -380.17 l 519.57 -476.72 l 423.02 -476.72 z m 42.84 -253.45 l 139.40 -253.45 l 139.40 -350.00 l 42.84 -350.00 z m 42.84 -126.72 l 139.40 -126.72 l 139.40 -223.28 l 42.84 -223.28 z m 42.84 0.00 l 139.40 0.00 l 139.40 -96.55 l 42.84 -96.55 z "},"Q":{"ha":689,"x_min":0,"x_max":0,"o":"m 169.57 -760.35 l 266.12 -760.35 l 266.12 -856.90 l 169.57 -856.90 z m 296.29 -760.35 l 392.85 -760.35 l 392.85 -856.90 l 296.29 -856.90 z m 423.02 -760.35 l 519.57 -760.35 l 519.57 -856.90 l 423.02 -856.90 z m 42.84 -633.62 l 139.40 -633.62 l 139.40 -730.17 l 42.84 -730.17 z m 549.74 -633.62 l 646.29 -633.62 l 646.29 -730.17 l 549.74 -730.17 z m 42.84 -506.90 l 139.40 -506.90 l 139.40 -603.45 l 42.84 -603.45 z m 549.74 -506.90 l 646.29 -506.90 l 646.29 -603.45 l 549.74 -603.45 z m 42.84 -380.17 l 139.40 -380.17 l 139.40 -476.72 l 42.84 -476.72 z m 549.74 -380.17 l 646.29 -380.17 l 646.29 -476.72 l 549.74 -476.72 z m 42.84 -253.45 l 139.40 -253.45 l 139.40 -350.00 l 42.84 -350.00 z m 296.29 -253.45 l 392.85 -253.45 l 392.85 -350.00 l 296.29 -350.00 z m 549.74 -253.45 l 646.29 -253.45 l 646.29 -350.00 l 549.74 -350.00 z m 42.84 -126.72 l 139.40 -126.72 l 139.40 -223.28 l 42.84 -223.28 z m 423.02 -126.72 l 519.57 -126.72 l 519.57 -223.28 l 423.02 -223.28 z m 169.57 0.00 l 266.12 0.00 l 266.12 -96.55 l 169.57 -96.55 z m 296.29 0.00 l 392.85 0.00 l 392.85 -96.55 l 296.29 -96.55 z m 549.74 0.00 l 646.29 0.00 l 646.29 -96.55 l 549.74 -96.55 z "},"R":{"ha":689,"x_min":0,"x_max":0,"o":"m 42.84 -760.35 l 139.40 -760.35 l 139.40 -856.90 l 42.84 -856.90 z m 169.57 -760.35 l 266.12 -760.35 l 266.12 -856.90 l 169.57 -856.90 z m 296.29 -760.35 l 392.85 -760.35 l 392.85 -856.90 l 296.29 -856.90 z m 423.02 -760.35 l 519.57 -760.35 l 519.57 -856.90 l 423.02 -856.90 z m 42.84 -633.62 l 139.40 -633.62 l 139.40 -730.17 l 42.84 -730.17 z m 549.74 -633.62 l 646.29 -633.62 l 646.29 -730.17 l 549.74 -730.17 z m 42.84 -506.90 l 139.40 -506.90 l 139.40 -603.45 l 42.84 -603.45 z m 549.74 -506.90 l 646.29 -506.90 l 646.29 -603.45 l 549.74 -603.45 z m 42.84 -380.17 l 139.40 -380.17 l 139.40 -476.72 l 42.84 -476.72 z m 169.57 -380.17 l 266.12 -380.17 l 266.12 -476.72 l 169.57 -476.72 z m 296.29 -380.17 l 392.85 -380.17 l 392.85 -476.72 l 296.29 -476.72 z m 423.02 -380.17 l 519.57 -380.17 l 519.57 -476.72 l 423.02 -476.72 z m 42.84 -253.45 l 139.40 -253.45 l 139.40 -350.00 l 42.84 -350.00 z m 296.29 -253.45 l 392.85 -253.45 l 392.85 -350.00 l 296.29 -350.00 z m 42.84 -126.72 l 139.40 -126.72 l 139.40 -223.28 l 42.84 -223.28 z m 423.02 -126.72 l 519.57 -126.72 l 519.57 -223.28 l 423.02 -223.28 z m 42.84 0.00 l 139.40 0.00 l 139.40 -96.55 l 42.84 -96.55 z m 549.74 0.00 l 646.29 0.00 l 646.29 -96.55 l 549.74 -96.55 z "},"S":{"ha":689,"x_min":0,"x_max":0,"o":"m 169.57 -760.35 l 266.12 -760.35 l 266.12 -856.90 l 169.57 -856.90 z m 296.29 -760.35 l 392.85 -760.35 l 392.85 -856.90 l 296.29 -856.90 z m 423.02 -760.35 l 519.57 -760.35 l 519.57 -856.90 l 423.02 -856.90 z m 549.74 -760.35 l 646.29 -760.35 l 646.29 -856.90 l 549.74 -856.90 z m 42.84 -633.62 l 139.40 -633.62 l 139.40 -730.17 l 42.84 -730.17 z m 42.84 -506.90 l 139.40 -506.90 l 139.40 -603.45 l 42.84 -603.45 z m 169.57 -380.17 l 266.12 -380.17 l 266.12 -476.72 l 169.57 -476.72 z m 296.29 -380.17 l 392.85 -380.17 l 392.85 -476.72 l 296.29 -476.72 z m 423.02 -380.17 l 519.57 -380.17 l 519.57 -476.72 l 423.02 -476.72 z m 549.74 -253.45 l 646.29 -253.45 l 646.29 -350.00 l 549.74 -350.00 z m 549.74 -126.72 l 646.29 -126.72 l 646.29 -223.28 l 549.74 -223.28 z m 42.84 0.00 l 139.40 0.00 l 139.40 -96.55 l 42.84 -96.55 z m 169.57 0.00 l 266.12 0.00 l 266.12 -96.55 l 169.57 -96.55 z m 296.29 0.00 l 392.85 0.00 l 392.85 -96.55 l 296.29 -96.55 z m 423.02 0.00 l 519.57 0.00 l 519.57 -96.55 l 423.02 -96.55 z "},"T":{"ha":689,"x_min":0,"x_max":0,"o":"m 42.84 -760.35 l 139.40 -760.35 l 139.40 -856.90 l 42.84 -856.90 z m 169.57 -760.35 l 266.12 -760.35 l 266.12 -856.90 l 169.57 -856.90 z m 296.29 -760.35 l 392.85 -760.35 l 392.85 -856.90 l 296.29 -856.90 z m 423.02 -760.35 l 519.57 -760.35 l 519.57 -856.90 l 423.02 -856.90 z m 549.74 -760.35 l 646.29 -760.35 l 646.29 -856.90 l 549.74 -856.90 z m 296.29 -633.62 l 392.85 -633.62 l 392.85 -730.17 l 296.29 -730.17 z m 296.29 -506.90 l 392.85 -506.90 l 392.85 -603.45 l 296.29 -603.45 z m 296.29 -380.17 l 392.85 -380.17 l 392.85 -476.72 l 296.29 -476.72 z m 296.29 -253.45 l 392.85 -253.45 l 392.85 -350.00 l 296.29 -350.00 z m 296.29 -126.72 l 392.85 -126.72 l 392.85 -223.28 l 296.29 -223.28 z m 296.29 0.00 l 392.85 0.00 l 392.85 -96.55 l 296.29 -96.55 z "},"U":{"ha":689,"x_min":0,"x_max":0,"o":"m 42.84 -760.35 l 139.40 -760.35 l 139.40 -856.90 l 42.84 -856.90 z m 549.74 -760.35 l 646.29 -760.35 l 646.29 -856.90 l 549.74 -856.90 z m 42.84 -633.62 l 139.40 -633.62 l 139.40 -730.17 l 42.84 -730.17 z m 549.74 -633.62 l 646.29 -633.62 l 646.29 -730.17 l 549.74 -730.17 z m 42.84 -506.90 l 139.40 -506.90 l 139.40 -603.45 l 42.84 -603.45 z m 549.74 -506.90 l 646.29 -506.90 l 646.29 -603.45 l 549.74 -603.45 z m 42.84 -380.17 l 139.40 -380.17 l 139.40 -476.72 l 42.84 -476.72 z m 549.74 -380.17 l 646.29 -380.17 l 646.29 -476.72 l 549.74 -476.72 z m 42.84 -253.45 l 139.40 -253.45 l 139.40 -350.00 l 42.84 -350.00 z m 549.74 -253.45 l 646.29 -253.45 l 646.29 -350.00 l 549.74 -350.00 z m 42.84 -126.72 l 139.40 -126.72 l 139.40 -223.28 l 42.84 -223.28 z m 549.74 -126.72 l 646.29 -126.72 l 646.29 -223.28 l 549.74 -223.28 z m 169.57 0.00 l 266.12 0.00 l 266.12 -96.55 l 169.57 -96.55 z m 296.29 0.00 l 392.85 0.00 l 392.85 -96.55 l 296.29 -96.55 z m 423.02 0.00 l 519.57 0.00 l 519.57 -96.55 l 423.02 -96.55 z "},"V":{"ha":689,"x_min":0,"x_max":0,"o":"m 42.84 -760.35 l 139.40 -760.35 l 139.40 -856.90 l 42.84 -856.90 z m 549.74 -760.35 l 646.29 -760.35 l 646.29 -856.90 l 549.74 -856.90 z m 42.84 -633.62 l 139.40 -633.62 l 139.40 -730.17 l 42.84 -730.17 z m 549.74 -633.62 l 646.29 -633.62 l 646.29 -730.17 l 549.74 -730.17 z m 42.84 -506.90 l 139.40 -506.90 l 139.40 -603.45 l 42.84 -603.45 z m 549.74 -506.90 l 646.29 -506.90 l 646.29 -603.45 l 549.74 -603.45 z m 42.84 -380.17 l 139.40 -380.17 l 139.40 -476.72 l 42.84 -476.72 z m 549.74 -380.17 l 646.29 -380.17 l 646.29 -476.72 l 549.74 -476.72 z m 42.84 -253.45 l 139.40 -253.45 l 139.40 -350.00 l 42.84 -350.00 z m 549.74 -253.45 l 646.29 -253.45 l 646.29 -350.00 l 549.74 -350.00 z m 169.57 -126.72 l 266.12 -126.72 l 266.12 -223.28 l 169.57 -223.28 z m 423.02 -126.72 l 519.57 -126.72 l 519.57 -223.28 l 423.02 -223.28 z m 296.29 0.00 l 392.85 0.00 l 392.85 -96.55 l 296.29 -96.55 z "},"W":{"ha":689,"x_min":0,"x_max":0,"o":"m 42.84 -760.35 l 139.40 -760.35 l 139.40 -856.90 l 42.84 -856.90 z m 549.74 -760.35 l 646.29 -760.35 l 646.29 -856.90 l 549.74 -856.90 z m 42.84 -633.62 l 139.40 -633.62 l 139.40 -730.17 l 42.84 -730.17 z m 549.74 -633.62 l 646.29 -633.62 l 646.29 -730.17 l 549.74 -730.17 z m 42.84 -506.90 l 139.40 -506.90 l 139.40 -603.45 l 42.84 -603.45 z m 549.74 -506.90 l 646.29 -506.90 l 646.29 -603.45 l 549.74 -603.45 z m 42.84 -380.17 l 139.40 -380.17 l 139.40 -476.72 l 42.84 -476.72 z m 296.29 -380.17 l 392.85 -380.17 l 392.85 -476.72 l 296.29 -476.72 z m 549.74 -380.17 l 646.29 -380.17 l 646.29 -476.72 l 549.74 -476.72 z m 42.84 -253.45 l 139.40 -253.45 l 139.40 -350.00 l 42.84 -350.00 z m 296.29 -253.45 l 392.85 -253.45 l 392.85 -350.00 l 296.29 -350.00 z m 549.74 -253.45 l 646.29 -253.45 l 646.29 -350.00 l 549.74 -350.00 z m 42.84 -126.72 l 139.40 -126.72 l 139.40 -223.28 l 42.84 -223.28 z m 296.29 -126.72 l 392.85 -126.72 l 392.85 -223.28 l 296.29 -223.28 z m 549.74 -126.72 l 646.29 -126.72 l 646.29 -223.28 l 549.74 -223.28 z m 169.57 0.00 l 266.12 0.00 l 266.12 -96.55 l 169.57 -96.55 z m 423.02 0.00 l 519.57 0.00 l 519.57 -96.55 l 423.02 -96.55 z "},"X":{"ha":689,"x_min":0,"x_max":0,"o":"m 42.84 -760.35 l 139.40 -760.35 l 139.40 -856.90 l 42.84 -856.90 z m 549.74 -760.35 l 646.29 -760.35 l 646.29 -856.90 l 549.74 -856.90 z m 42.84 -633.62 l 139.40 -633.62 l 139.40 -730.17 l 42.84 -730.17 z m 549.74 -633.62 l 646.29 -633.62 l 646.29 -730.17 l 549.74 -730.17 z m 169.57 -506.90 l 266.12 -506.90 l 266.12 -603.45 l 169.57 -603.45 z m 423.02 -506.90 l 519.57 -506.90 l 519.57 -603.45 l 423.02 -603.45 z m 296.29 -380.17 l 392.85 -380.17 l 392.85 -476.72 l 296.29 -476.72 z m 169.57 -253.45 l 266.12 -253.45 l 266.12 -350.00 l 169.57 -350.00 z m 423.02 -253.45 l 519.57 -253.45 l 519.57 -350.00 l 423.02 -350.00 z m 42.84 -126.72 l 139.40 -126.72 l 139.40 -223.28 l 42.84 -223.28 z m 549.74 -126.72 l 646.29 -126.72 l 646.29 -223.28 l 549.74 -223.28 z m 42.84 0.00 l 139.40 0.00 l 139.40 -96.55 l 42.84 -96.55 z m 549.74 0.00 l 646.29 0.00 l 646.29 -96.55 l 549.74 -96.55 z "},"Y":{"ha":689,"x_min":0,"x_max":0,"o":"m 42.84 -760.35 l 139.40 -760.35 l 139.40 -856.90 l 42.84 -856.90 z m 549.74 -760.35 l 646.29 -760.35 l 646.29 -856.90 l 549.74 -856.90 z m 42.84 -633.62 l 139.40 -633.62 l 139.40 -730.17 l 42.84 -730.17 z m 549.74 -633.62 l 646.29 -633.62 l 646.29 -730.17 l 549.74 -730.17 z m 42.84 -506.90 l 139.40 -506.90 l 139.40 -603.45 l 42.84 -603.45 z m 549.74 -506.90 l 646.29 -506.90 l 646.29 -603.45 l 549.74 -603.45 z m 169.57 -380.17 l 266.12 -380.17 l 266.12 -476.72 l 169.57 -476.72 z m 423.02 -380.17 l 519.57 -380.17 l 519.57 -476.72 l 423.02 -476.72 z m 296.29 -253.45 l 392.85 -253.45 l 392.85 -350.00 l 296.29 -350.00 z m 296.29 -126.72 l 392.85 -126.72 l 392.85 -223.28 l 296.29 -223.28 z m 296.29 0.00 l 392.85 0.00 l 392.85 -96.55 l 296.29 -96.55 z "},"Z":{"ha":689,"x_min":0,"x_max":0,"o":"m 42.84 -760.35 l 139.40 -760.35 l 139.40 -856.90 l 42.84 -856.90 z m 169.57 -760.35 l 266.12 -760.35 l 266.12 -856.90 l 169.57 -856.90 z m 296.29 -760.35 l 392.85 -760.35 l 392.85 -856.90 l 296.29 -856.90 z m 423.02 -760.35 l 519.57 -760.35 l 519.57 -856.90 l 423.02 -856.90 z m 549.74 -760.35 l 646.29 -760.35 l 646.29 -856.90 l 549.74 -856.90 z m 549.74 -633.62 l 646.29 -633.62 l 646.29 -730.17 l 549.74 -730.17 z m 423.02 -506.90 l 519.57 -506.90 l 519.57 -603.45 l 423.02 -603.45 z m 296.29 -380.17 l 392.85 -380.17 l 392.85 -476.72 l 296.29 -476.72 z m 169.57 -253.45 l 266.12 -253.45 l 266.12 -350.00 l 169.57 -350.00 z m 42.84 -126.72 l 139.40 -126.72 l 139.40 -223.28 l 42.84 -223.28 z m 42.84 0.00 l 139.40 0.00 l 139.40 -96.55 l 42.84 -96.55 z m 169.57 0.00 l 266.12 0.00 l 266.12 -96.55 l 169.57 -96.55 z m 296.29 0.00 l 392.85 0.00 l 392.85 -96.55 l 296.29 -96.55 z m 423.02 0.00 l 519.57 0.00 l 519.57 -96.55 l 423.02 -96.55 z m 549.74 0.00 l 646.29 0.00 l 646.29 -96.55 l 549.74 -96.55 z "}," ":{"ha":655,"x_min":0,"x_max":0,"o":""},"!":{"ha":689,"x_min":0,"x_max":0,"o":"m 296.29 -760.35 l 392.85 -760.35 l 392.85 -856.90 l 296.29 -856.90 z m 296.29 -633.62 l 392.85 -633.62 l 392.85 -730.17 l 296.29 -730.17 z m 296.29 -506.90 l 392.85 -506.90 l 392.85 -603.45 l 296.29 -603.45 z m 296.29 -380.17 l 392.85 -380.17 l 392.85 -476.72 l 296.29 -476.72 z m 296.29 0.00 l 392.85 0.00 l 392.85 -96.55 l 296.29 -96.55 z "},"\"":{"ha":689,"x_min":0,"x_max":0,"o":"m 169.57 -760.35 l 266.12 -760.35 l 266.12 -856.90 l 169.57 -856.90 z m 423.02 -760.35 l 519.57 -760.35 l 519.57 -856.90 l 423.02 -856.90 z m 169.57 -633.62 l 266.12 -633.62 l 266.12 -730.17 l 169.57 -730.17 z m 423.02 -633.62 l 519.57 -633.62 l 519.57 -730.17 l 423.02 -730.17 z m 169.57 -506.90 l 266.12 -506.90 l 266.12 -603.45 l 169.57 -603.45 z m 423.02 -506.90 l 519.57 -506.90 l 519.57 -603.45 l 423.02 -603.45 z "},"#":{"ha":689,"x_min":0,"x_max":0,"o":"m 169.57 -760.35 l 266.12 -760.35 l 266.12 -856.90 l 169.57 -856.90 z m 423.02 -760.35 l 519.57 -760.35 l 519.57 -856.90 l 423.02 -856.90 z m 169.57 -633.62 l 266.12 -633.62 l 266.12 -730.17 l 169.57 -730.17 z m 423.02 -633.62 l 519.57 -633.62 l 519.57 -730.17 l 423.02 -730.17 z m 42.84 -506.90 l 139.40 -506.90 l 139.40 -603.45 l 42.84 -603.45 z m 169.57 -506.90 l 266.12 -506.90 l 266.12 -603.45 l 169.57 -603.45 z m 296.29 -506.90 l 392.85 -506.90 l 392.85 -603.45 l 296.29 -603.45 z m 423.02 -506.90 l 519.57 -506.90 l 519.57 -603.45 l 423.02 -603.45 z m 549.74 -506.90 l 646.29 -506.90 l 646.29 -603.45 l 549.74 -603.45 z m 169.57 -380.17 l 266.12 -380.17 l 266.12 -476.72 l 169.57 -476.72 z m 423.02 -380.17 l 519.57 -380.17 l 519.57 -476.72 l 423.02 -476.72 z m 42.84 -253.45 l 139.40 -253.45 l 139.40 -350.00 l 42.84 -350.00 z m 169.57 -253.45 l 266.12 -253.45 l 266.12 -350.00 l 169.57 -350.00 z m 296.29 -253.45 l 392.85 -253.45 l 392.85 -350.00 l 296.29 -350.00 z m 423.02 -253.45 l 519.57 -253.45 l 519.57 -350.00 l 423.02 -350.00 z m 549.74 -253.45 l 646.29 -253.45 l 646.29 -350.00 l 549.74 -350.00 z m 169.57 -126.72 l 266.12 -126.72 l 266.12 -223.28 l 169.57 -223.28 z m 423.02 -126.72 l 519.57 -126.72 l 519.57 -223.28 l 423.02 -223.28 z m 169.57 0.00 l 266.12 0.00 l 266.12 -96.55 l 169.57 -96.55 z m 423.02 0.00 l 519.57 0.00 l 519.57 -96.55 l 423.02 -96.55 z "},"$":{"ha":689,"x_min":0,"x_max":0,"o":"m 296.29 -760.35 l 392.85 -760.35 l 392.85 -856.90 l 296.29 -856.90 z m 169.57 -633.62 l 266.12 -633.62 l 266.12 -730.17 l 169.57 -730.17 z m 296.29 -633.62 l 392.85 -633.62 l 392.85 -730.17 l 296.29 -730.17 z m 423.02 -633.62 l 519.57 -633.62 l 519.57 -730.17 l 423.02 -730.17 z m 549.74 -633.62 l 646.29 -633.62 l 646.29 -730.17 l 549.74 -730.17 z m 42.84 -506.90 l 139.40 -506.90 l 139.40 -603.45 l 42.84 -603.45 z m 296.29 -506.90 l 392.85 -506.90 l 392.85 -603.45 l 296.29 -603.45 z m 169.57 -380.17 l 266.12 -380.17 l 266.12 -476.72 l 169.57 -476.72 z m 296.29 -380.17 l 392.85 -380.17 l 392.85 -476.72 l 296.29 -476.72 z m 423.02 -380.17 l 519.57 -380.17 l 519.57 -476.72 l 423.02 -476.72 z m 296.29 -253.45 l 392.85 -253.45 l 392.85 -350.00 l 296.29 -350.00 z m 549.74 -253.45 l 646.29 -253.45 l 646.29 -350.00 l 549.74 -350.00 z m 42.84 -126.72 l 139.40 -126.72 l 139.40 -223.28 l 42.84 -223.28 z m 169.57 -126.72 l 266.12 -126.72 l 266.12 -223.28 l 169.57 -223.28 z m 296.29 -126.72 l 392.85 -126.72 l 392.85 -223.28 l 296.29 -223.28 z m 423.02 -126.72 l 519.57 -126.72 l 519.57 -223.28 l 423.02 -223.28 z m 296.29 0.00 l 392.85 0.00 l 392.85 -96.55 l 296.29 -96.55 z "},"%":{"ha":689,"x_min":0,"x_max":0,"o":"m 42.84 -760.35 l 139.40 -760.35 l 139.40 -856.90 l 42.84 -856.90 z m 169.57 -760.35 l 266.12 -760.35 l 266.12 -856.90 l 169.57 -856.90 z m 42.84 -633.62 l 139.40 -633.62 l 139.40 -730.17 l 42.84 -730.17 z m 169.57 -633.62 l 266.12 -633.62 l 266.12 -730.17 l 169.57 -730.17 z m 549.74 -633.62 l 646.29 -633.62 l 646.29 -730.17 l 549.74 -730.17 z m 423.02 -506.90 l 519.57 -506.90 l 519.57 -603.45 l 423.02 -603.45 z m 296.29 -380.17 l 392.85 -380.17 l 392.85 -476.72 l 296.29 -476.72 z m 169.57 -253.45 l 266.12 -253.45 l 266.12 -350.00 l 169.57 -350.00 z m 42.84 -126.72 l 139.40 -126.72 l 139.40 -223.28 l 42.84 -223.28 z m 423.02 -126.72 l 519.57 -126.72 l 519.57 -223.28 l 423.02 -223.28 z m 549.74 -126.72 l 646.29 -126.72 l 646.29 -223.28 l 549.74 -223.28 z m 423.02 0.00 l 519.57 0.00 l 519.57 -96.55 l 423.02 -96.55 z m 549.74 0.00 l 646.29 0.00 l 646.29 -96.55 l 549.74 -96.55 z "},"&":{"ha":689,"x_min":0,"x_max":0,"o":"m 169.57 -760.35 l 266.12 -760.35 l 266.12 -856.90 l 169.57 -856.90 z m 296.29 -760.35 l 392.85 -760.35 l 392.85 -856.90 l 296.29 -856.90 z m 42.84 -633.62 l 139.40 -633.62 l 139.40 -730.17 l 42.84 -730.17 z m 423.02 -633.62 l 519.57 -633.62 l 519.57 -730.17 l 423.02 -730.17 z m 42.84 -506.90 l 139.40 -506.90 l 139.40 -603.45 l 42.84 -603.45 z m 296.29 -506.90 l 392.85 -506.90 l 392.85 -603.45 l 296.29 -603.45 z m 169.57 -380.17 l 266.12 -380.17 l 266.12 -476.72 l 169.57 -476.72 z m 42.84 -253.45 l 139.40 -253.45 l 139.40 -350.00 l 42.84 -350.00 z m 296.29 -253.45 l 392.85 -253.45 l 392.85 -350.00 l 296.29 -350.00 z m 549.74 -253.45 l 646.29 -253.45 l 646.29 -350.00 l 549.74 -350.00 z m 42.84 -126.72 l 139.40 -126.72 l 139.40 -223.28 l 42.84 -223.28 z m 423.02 -126.72 l 519.57 -126.72 l 519.57 -223.28 l 423.02 -223.28 z m 169.57 0.00 l 266.12 0.00 l 266.12 -96.55 l 169.57 -96.55 z m 296.29 0.00 l 392.85 0.00 l 392.85 -96.55 l 296.29 -96.55 z m 549.74 0.00 l 646.29 0.00 l 646.29 -96.55 l 549.74 -96.55 z "},"'":{"ha":689,"x_min":0,"x_max":0,"o":"m 169.57 -760.35 l 266.12 -760.35 l 266.12 -856.90 l 169.57 -856.90 z m 296.29 -760.35 l 392.85 -760.35 l 392.85 -856.90 l 296.29 -856.90 z m 296.29 -633.62 l 392.85 -633.62 l 392.85 -730.17 l 296.29 -730.17 z m 169.57 -506.90 l 266.12 -506.90 l 266.12 -603.45 l 169.57 -603.45 z "},"(":{"ha":689,"x_min":0,"x_max":0,"o":"m 423.02 -760.35 l 519.57 -760.35 l 519.57 -856.90 l 423.02 -856.90 z m 296.29 -633.62 l 392.85 -633.62 l 392.85 -730.17 l 296.29 -730.17 z m 169.57 -506.90 l 266.12 -506.90 l 266.12 -603.45 l 169.57 -603.45 z m 169.57 -380.17 l 266.12 -380.17 l 266.12 -476.72 l 169.57 -476.72 z m 169.57 -253.45 l 266.12 -253.45 l 266.12 -350.00 l 169.57 -350.00 z m 296.29 -126.72 l 392.85 -126.72 l 392.85 -223.28 l 296.29 -223.28 z m 423.02 0.00 l 519.57 0.00 l 519.57 -96.55 l 423.02 -96.55 z "},")":{"ha":689,"x_min":0,"x_max":0,"o":"m 169.57 -760.35 l 266.12 -760.35 l 266.12 -856.90 l 169.57 -856.90 z m 296.29 -633.62 l 392.85 -633.62 l 392.85 -730.17 l 296.29 -730.17 z m 423.02 -506.90 l 519.57 -506.90 l 519.57 -603.45 l 423.02 -603.45 z m 423.02 -380.17 l 519.57 -380.17 l 519.57 -476.72 l 423.02 -476.72 z m 423.02 -253.45 l 519.57 -253.45 l 519.57 -350.00 l 423.02 -350.00 z m 296.29 -126.72 l 392.85 -126.72 l 392.85 -223.28 l 296.29 -223.28 z m 169.57 0.00 l 266.12 0.00 l 266.12 -96.55 l 169.57 -96.55 z "},"*":{"ha":689,"x_min":0,"x_max":0,"o":"m 296.29 -633.62 l 392.85 -633.62 l 392.85 -730.17 l 296.29 -730.17 z m 42.84 -506.90 l 139.40 -506.90 l 139.40 -603.45 l 42.84 -603.45 z m 296.29 -506.90 l 392.85 -506.90 l 392.85 -603.45 l 296.29 -603.45 z m 549.74 -506.90 l 646.29 -506.90 l 646.29 -603.45 l 549.74 -603.45 z m 169.57 -380.17 l 266.12 -380.17 l 266.12 -476.72 l 169.57 -476.72 z m 296.29 -380.17 l 392.85 -380.17 l 392.85 -476.72 l 296.29 -476.72 z m 423.02 -380.17 l 519.57 -380.17 l 519.57 -476.72 l 423.02 -476.72 z m 42.84 -253.45 l 139.40 -253.45 l 139.40 -350.00 l 42.84 -350.00 z m 296.29 -253.45 l 392.85 -253.45 l 392.85 -350.00 l 296.29 -350.00 z m 549.74 -253.45 l 646.29 -253.45 l 646.29 -350.00 l 549.74 -350.00 z m 296.29 -126.72 l 392.85 -126.72 l 392.85 -223.28 l 296.29 -223.28 z "},"+":{"ha":689,"x_min":0,"x_max":0,"o":"m 296.29 -633.62 l 392.85 -633.62 l 392.85 -730.17 l 296.29 -730.17 z m 296.29 -506.90 l 392.85 -506.90 l 392.85 -603.45 l 296.29 -603.45 z m 42.84 -380.17 l 139.40 -380.17 l 139.40 -476.72 l 42.84 -476.72 z m 169.57 -380.17 l 266.12 -380.17 l 266.12 -476.72 l 169.57 -476.72 z m 296.29 -380.17 l 392.85 -380.17 l 392.85 -476.72 l 296.29 -476.72 z m 423.02 -380.17 l 519.57 -380.17 l 519.57 -476.72 l 423.02 -476.72 z m 549.74 -380.17 l 646.29 -380.17 l 646.29 -476.72 l 549.74 -476.72 z m 296.29 -253.45 l 392.85 -253.45 l 392.85 -350.00 l 296.29 -350.00 z m 296.29 -126.72 l 392.85 -126.72 l 392.85 -223.28 l 296.29 -223.28 z "},",":{"ha":689,"x_min":0,"x_max":0,"o":"m 169.57 -253.45 l 266.12 -253.45 l 266.12 -350.00 l 169.57 -350.00 z m 296.29 -253.45 l 392.85 -253.45 l 392.85 -350.00 l 296.29 -350.00 z m 296.29 -126.72 l 392.85 -126.72 l 392.85 -223.28 l 296.29 -223.28 z m 169.57 0.00 l 266.12 0.00 l 266.12 -96.55 l 169.57 -96.55 z "},"-":{"ha":689,"x_min":0,"x_max":0,"o":"m 42.84 -380.17 l 139.40 -380.17 l 139.40 -476.72 l 42.84 -476.72 z m 169.57 -380.17 l 266.12 -380.17 l 266.12 -476.72 l 169.57 -476.72 z m 296.29 -380.17 l 392.85 -380.17 l 392.85 -476.72 l 296.29 -476.72 z m 423.02 -380.17 l 519.57 -380.17 l 519.57 -476.72 l 423.02 -476.72 z m 549.74 -380.17 l 646.29 -380.17 l 646.29 -476.72 l 549.74 -476.72 z "},".":{"ha":689,"x_min":0,"x_max":0,"o":"m 169.57 -126.72 l 266.12 -126.72 l 266.12 -223.28 l 169.57 -223.28 z m 296.29 -126.72 l 392.85 -126.72 l 392.85 -223.28 l 296.29 -223.28 z m 169.57 0.00 l 266.12 0.00 l 266.12 -96.55 l 169.57 -96.55 z m 296.29 0.00 l 392.85 0.00 l 392.85 -96.55 l 296.29 -96.55 z "},"/":{"ha":689,"x_min":0,"x_max":0,"o":"m 549.74 -633.62 l 646.29 -633.62 l 646.29 -730.17 l 549.74 -730.17 z m 423.02 -506.90 l 519.57 -506.90 l 519.57 -603.45 l 423.02 -603.45 z m 296.29 -380.17 l 392.85 -380.17 l 392.85 -476.72 l 296.29 -476.72 z m 169.57 -253.45 l 266.12 -253.45 l 266.12 -350.00 l 169.57 -350.00 z m 42.84 -126.72 l 139.40 -126.72 l 139.40 -223.28 l 42.84 -223.28 z "},":":{"ha":689,"x_min":0,"x_max":0,"o":"m 169.57 -633.62 l 266.12 -633.62 l 266.12 -730.17 l 169.57 -730.17 z m 296.29 -633.62 l 392.85 -633.62 l 392.85 -730.17 l 296.29 -730.17 z m 169.57 -506.90 l 266.12 -506.90 l 266.12 -603.45 l 169.57 -603.45 z m 296.29 -506.90 l 392.85 -506.90 l 392.85 -603.45 l 296.29 -603.45 z m 169.57 -253.45 l 266.12 -253.45 l 266.12 -350.00 l 169.57 -350.00 z m 296.29 -253.45 l 392.85 -253.45 l 392.85 -350.00 l 296.29 -350.00 z m 169.57 -126.72 l 266.12 -126.72 l 266.12 -223.28 l 169.57 -223.28 z m 296.29 -126.72 l 392.85 -126.72 l 392.85 -223.28 l 296.29 -223.28 z "},";":{"ha":689,"x_min":0,"x_max":0,"o":"m 169.57 -633.62 l 266.12 -633.62 l 266.12 -730.17 l 169.57 -730.17 z m 296.29 -633.62 l 392.85 -633.62 l 392.85 -730.17 l 296.29 -730.17 z m 169.57 -506.90 l 266.12 -506.90 l 266.12 -603.45 l 169.57 -603.45 z m 296.29 -506.90 l 392.85 -506.90 l 392.85 -603.45 l 296.29 -603.45 z m 169.57 -253.45 l 266.12 -253.45 l 266.12 -350.00 l 169.57 -350.00 z m 296.29 -253.45 l 392.85 -253.45 l 392.85 -350.00 l 296.29 -350.00 z m 296.29 -126.72 l 392.85 -126.72 l 392.85 -223.28 l 296.29 -223.28 z m 169.57 0.00 l 266.12 0.00 l 266.12 -96.55 l 169.57 -96.55 z "},"<":{"ha":689,"x_min":0,"x_max":0,"o":"m 423.02 -760.35 l 519.57 -760.35 l 519.57 -856.90 l 423.02 -856.90 z m 296.29 -633.62 l 392.85 -633.62 l 392.85 -730.17 l 296.29 -730.17 z m 169.57 -506.90 l 266.12 -506.90 l 266.12 -603.45 l 169.57 -603.45 z m 42.84 -380.17 l 139.40 -380.17 l 139.40 -476.72 l 42.84 -476.72 z m 169.57 -253.45 l 266.12 -253.45 l 266.12 -350.00 l 169.57 -350.00 z m 296.29 -126.72 l 392.85 -126.72 l 392.85 -223.28 l 296.29 -223.28 z m 423.02 0.00 l 519.57 0.00 l 519.57 -96.55 l 423.02 -96.55 z "},"=":{"ha":689,"x_min":0,"x_max":0,"o":"m 42.84 -506.90 l 139.40 -506.90 l 139.40 -603.45 l 42.84 -603.45 z m 169.57 -506.90 l 266.12 -506.90 l 266.12 -603.45 l 169.57 -603.45 z m 296.29 -506.90 l 392.85 -506.90 l 392.85 -603.45 l 296.29 -603.45 z m 423.02 -506.90 l 519.57 -506.90 l 519.57 -603.45 l 423.02 -603.45 z m 549.74 -506.90 l 646.29 -506.90 l 646.29 -603.45 l 549.74 -603.45 z m 42.84 -253.45 l 139.40 -253.45 l 139.40 -350.00 l 42.84 -350.00 z m 169.57 -253.45 l 266.12 -253.45 l 266.12 -350.00 l 169.57 -350.00 z m 296.29 -253.45 l 392.85 -253.45 l 392.85 -350.00 l 296.29 -350.00 z m 423.02 -253.45 l 519.57 -253.45 l 519.57 -350.00 l 423.02 -350.00 z m 549.74 -253.45 l 646.29 -253.45 l 646.29 -350.00 l 549.74 -350.00 z "},">":{"ha":689,"x_min":0,"x_max":0,"o":"m 169.57 -760.35 l 266.12 -760.35 l 266.12 -856.90 l 169.57 -856.90 z m 296.29 -633.62 l 392.85 -633.62 l 392.85 -730.17 l 296.29 -730.17 z m 423.02 -506.90 l 519.57 -506.90 l 519.57 -603.45 l 423.02 -603.45 z m 549.74 -380.17 l 646.29 -380.17 l 646.29 -476.72 l 549.74 -476.72 z m 423.02 -253.45 l 519.57 -253.45 l 519.57 -350.00 l 423.02 -350.00 z m 296.29 -126.72 l 392.85 -126.72 l 392.85 -223.28 l 296.29 -223.28 z m 169.57 0.00 l 266.12 0.00 l 266.12 -96.55 l 169.57 -96.55 z "},"?":{"ha":689,"x_min":0,"x_max":0,"o":"m 169.57 -760.35 l 266.12 -760.35 l 266.12 -856.90 l 169.57 -856.90 z m 296.29 -760.35 l 392.85 -760.35 l 392.85 -856.90 l 296.29 -856.90 z m 423.02 -760.35 l 519.57 -760.35 l 519.57 -856.90 l 423.02 -856.90 z m 42.84 -633.62 l 139.40 -633.62 l 139.40 -730.17 l 42.84 -730.17 z m 549.74 -633.62 l 646.29 -633.62 l 646.29 -730.17 l 549.74 -730.17 z m 549.74 -506.90 l 646.29 -506.90 l 646.29 -603.45 l 549.74 -603.45 z m 423.02 -380.17 l 519.57 -380.17 l 519.57 -476.72 l 423.02 -476.72 z m 296.29 -253.45 l 392.85 -253.45 l 392.85 -350.00 l 296.29 -350.00 z m 296.29 0.00 l 392.85 0.00 l 392.85 -96.55 l 296.29 -96.55 z "},"@":{"ha":689,"x_min":0,"x_max":0,"o":"m 169.57 -760.35 l 266.12 -760.35 l 266.12 -856.90 l 169.57 -856.90 z m 296.29 -760.35 l 392.85 -760.35 l 392.85 -856.90 l 296.29 -856.90 z m 423.02 -760.35 l 519.57 -760.35 l 519.57 -856.90 l 423.02 -856.90 z m 42.84 -633.62 l 139.40 -633.62 l 139.40 -730.17 l 42.84 -730.17 z m 549.74 -633.62 l 646.29 -633.62 l 646.29 -730.17 l 549.74 -730.17 z m 549.74 -506.90 l 646.29 -506.90 l 646.29 -603.45 l 549.74 -603.45 z m 169.57 -380.17 l 266.12 -380.17 l 266.12 -476.72 l 169.57 -476.72 z m 296.29 -380.17 l 392.85 -380.17 l 392.85 -476.72 l 296.29 -476.72 z m 549.74 -380.17 l 646.29 -380.17 l 646.29 -476.72 l 549.74 -476.72 z m 42.84 -253.45 l 139.40 -253.45 l 139.40 -350.00 l 42.84 -350.00 z m 296.29 -253.45 l 392.85 -253.45 l 392.85 -350.00 l 296.29 -350.00 z m 549.74 -253.45 l 646.29 -253.45 l 646.29 -350.00 l 549.74 -350.00 z m 42.84 -126.72 l 139.40 -126.72 l 139.40 -223.28 l 42.84 -223.28 z m 296.29 -126.72 l 392.85 -126.72 l 392.85 -223.28 l 296.29 -223.28 z m 549.74 -126.72 l 646.29 -126.72 l 646.29 -223.28 l 549.74 -223.28 z m 169.57 0.00 l 266.12 0.00 l 266.12 -96.55 l 169.57 -96.55 z m 296.29 0.00 l 392.85 0.00 l 392.85 -96.55 l 296.29 -96.55 z m 423.02 0.00 l 519.57 0.00 l 519.57 -96.55 l 423.02 -96.55 z "},"[":{"ha":689,"x_min":0,"x_max":0,"o":"m 169.57 -760.35 l 266.12 -760.35 l 266.12 -856.90 l 169.57 -856.90 z m 296.29 -760.35 l 392.85 -760.35 l 392.85 -856.90 l 296.29 -856.90 z m 423.02 -760.35 l 519.57 -760.35 l 519.57 -856.90 l 423.02 -856.90 z m 169.57 -633.62 l 266.12 -633.62 l 266.12 -730.17 l 169.57 -730.17 z m 169.57 -506.90 l 266.12 -506.90 l 266.12 -603.45 l 169.57 -603.45 z m 169.57 -380.17 l 266.12 -380.17 l 266.12 -476.72 l 169.57 -476.72 z m 169.57 -253.45 l 266.12 -253.45 l 266.12 -350.00 l 169.57 -350.00 z m 169.57 -126.72 l 266.12 -126.72 l 266.12 -223.28 l 169.57 -223.28 z m 169.57 0.00 l 266.12 0.00 l 266.12 -96.55 l 169.57 -96.55 z m 296.29 0.00 l 392.85 0.00 l 392.85 -96.55 l 296.29 -96.55 z m 423.02 0.00 l 519.57 0.00 l 519.57 -96.55 l 423.02 -96.55 z "},"\\":{"ha":689,"x_min":0,"x_max":0,"o":"m 42.84 -760.35 l 139.40 -760.35 l 139.40 -856.90 l 42.84 -856.90 z m 549.74 -760.35 l 646.29 -760.35 l 646.29 -856.90 l 549.74 -856.90 z m 169.57 -633.62 l 266.12 -633.62 l 266.12 -730.17 l 169.57 -730.17 z m 423.02 -633.62 l 519.57 -633.62 l 519.57 -730.17 l 423.02 -730.17 z m 42.84 -506.90 l 139.40 -506.90 l 139.40 -603.45 l 42.84 -603.45 z m 169.57 -506.90 l 266.12 -506.90 l 266.12 -603.45 l 169.57 -603.45 z m 296.29 -506.90 l 392.85 -506.90 l 392.85 -603.45 l 296.29 -603.45 z m 423.02 -506.90 l 519.57 -506.90 l 519.57 -603.45 l 423.02 -603.45 z m 549.74 -506.90 l 646.29 -506.90 l 646.29 -603.45 l 549.74 -603.45 z m 296.29 -380.17 l 392.85 -380.17 l 392.85 -476.72 l 296.29 -476.72 z m 42.84 -253.45 l 139.40 -253.45 l 139.40 -350.00 l 42.84 -350.00 z m 169.57 -253.45 l 266.12 -253.45 l 266.12 -350.00 l 169.57 -350.00 z m 296.29 -253.45 l 392.85 -253.45 l 392.85 -350.00 l 296.29 -350.00 z m 423.02 -253.45 l 519.57 -253.45 l 519.57 -350.00 l 423.02 -350.00 z m 549.74 -253.45 l 646.29 -253.45 l 646.29 -350.00 l 549.74 -350.00 z m 296.29 -126.72 l 392.85 -126.72 l 392.85 -223.28 l 296.29 -223.28 z m 296.29 0.00 l 392.85 0.00 l 392.85 -96.55 l 296.29 -96.55 z "},"]":{"ha":689,"x_min":0,"x_max":0,"o":"m 169.57 -760.35 l 266.12 -760.35 l 266.12 -856.90 l 169.57 -856.90 z m 296.29 -760.35 l 392.85 -760.35 l 392.85 -856.90 l 296.29 -856.90 z m 423.02 -760.35 l 519.57 -760.35 l 519.57 -856.90 l 423.02 -856.90 z m 423.02 -633.62 l 519.57 -633.62 l 519.57 -730.17 l 423.02 -730.17 z m 423.02 -506.90 l 519.57 -506.90 l 519.57 -603.45 l 423.02 -603.45 z m 423.02 -380.17 l 519.57 -380.17 l 519.57 -476.72 l 423.02 -476.72 z m 423.02 -253.45 l 519.57 -253.45 l 519.57 -350.00 l 423.02 -350.00 z m 423.02 -126.72 l 519.57 -126.72 l 519.57 -223.28 l 423.02 -223.28 z m 169.57 0.00 l 266.12 0.00 l 266.12 -96.55 l 169.57 -96.55 z m 296.29 0.00 l 392.85 0.00 l 392.85 -96.55 l 296.29 -96.55 z m 423.02 0.00 l 519.57 0.00 l 519.57 -96.55 l 423.02 -96.55 z "},"^":{"ha":689,"x_min":0,"x_max":0,"o":"m 296.29 -760.35 l 392.85 -760.35 l 392.85 -856.90 l 296.29 -856.90 z m 169.57 -633.62 l 266.12 -633.62 l 266.12 -730.17 l 169.57 -730.17 z m 423.02 -633.62 l 519.57 -633.62 l 519.57 -730.17 l 423.02 -730.17 z m 42.84 -506.90 l 139.40 -506.90 l 139.40 -603.45 l 42.84 -603.45 z m 549.74 -506.90 l 646.29 -506.90 l 646.29 -603.45 l 549.74 -603.45 z "},"_":{"ha":689,"x_min":0,"x_max":0,"o":"m 42.84 0.00 l 139.40 0.00 l 139.40 -96.55 l 42.84 -96.55 z m 169.57 0.00 l 266.12 0.00 l 266.12 -96.55 l 169.57 -96.55 z m 296.29 0.00 l 392.85 0.00 l 392.85 -96.55 l 296.29 -96.55 z m 423.02 0.00 l 519.57 0.00 l 519.57 -96.55 l 423.02 -96.55 z m 549.74 0.00 l 646.29 0.00 l 646.29 -96.55 l 549.74 -96.55 z "},"`":{"ha":689,"x_min":0,"x_max":0,"o":"m 169.57 -760.35 l 266.12 -760.35 l 266.12 -856.90 l 169.57 -856.90 z m 296.29 -633.62 l 392.85 -633.62 l 392.85 -730.17 l 296.29 -730.17 z m 423.02 -506.90 l 519.57 -506.90 l 519.57 -603.45 l 423.02 -603.45 z "},"{":{"ha":689,"x_min":0,"x_max":0,"o":"m 423.02 -760.35 l 519.57 -760.35 l 519.57 -856.90 l 423.02 -856.90 z m 296.29 -633.62 l 392.85 -633.62 l 392.85 -730.17 l 296.29 -730.17 z m 296.29 -506.90 l 392.85 -506.90 l 392.85 -603.45 l 296.29 -603.45 z m 169.57 -380.17 l 266.12 -380.17 l 266.12 -476.72 l 169.57 -476.72 z m 296.29 -253.45 l 392.85 -253.45 l 392.85 -350.00 l 296.29 -350.00 z m 296.29 -126.72 l 392.85 -126.72 l 392.85 -223.28 l 296.29 -223.28 z m 423.02 0.00 l 519.57 0.00 l 519.57 -96.55 l 423.02 -96.55 z "},"|":{"ha":689,"x_min":0,"x_max":0,"o":"m 296.29 -760.35 l 392.85 -760.35 l 392.85 -856.90 l 296.29 -856.90 z m 296.29 -633.62 l 392.85 -633.62 l 392.85 -730.17 l 296.29 -730.17 z m 296.29 -506.90 l 392.85 -506.90 l 392.85 -603.45 l 296.29 -603.45 z m 296.29 -380.17 l 392.85 -380.17 l 392.85 -476.72 l 296.29 -476.72 z m 296.29 -253.45 l 392.85 -253.45 l 392.85 -350.00 l 296.29 -350.00 z m 296.29 -126.72 l 392.85 -126.72 l 392.85 -223.28 l 296.29 -223.28 z m 296.29 0.00 l 392.85 0.00 l 392.85 -96.55 l 296.29 -96.55 z "},"}":{"ha":689,"x_min":0,"x_max":0,"o":"m 169.57 -760.35 l 266.12 -760.35 l 266.12 -856.90 l 169.57 -856.90 z m 296.29 -633.62 l 392.85 -633.62 l 392.85 -730.17 l 296.29 -730.17 z m 296.29 -506.90 l 392.85 -506.90 l 392.85 -603.45 l 296.29 -603.45 z m 423.02 -380.17 l 519.57 -380.17 l 519.57 -476.72 l 423.02 -476.72 z m 296.29 -253.45 l 392.85 -253.45 l 392.85 -350.00 l 296.29 -350.00 z m 296.29 -126.72 l 392.85 -126.72 l 392.85 -223.28 l 296.29 -223.28 z m 169.57 0.00 l 266.12 0.00 l 266.12 -96.55 l 169.57 -96.55 z "},"~":{"ha":689,"x_min":0,"x_max":0,"o":"m 169.57 -633.62 l 266.12 -633.62 l 266.12 -730.17 l 169.57 -730.17 z m 42.84 -506.90 l 139.40 -506.90 l 139.40 -603.45 l 42.84 -603.45 z m 296.29 -506.90 l 392.85 -506.90 l 392.85 -603.45 l 296.29 -603.45 z m 549.74 -506.90 l 646.29 -506.90 l 646.29 -603.45 l 549.74 -603.45 z m 42.84 -380.17 l 139.40 -380.17 l 139.40 -476.72 l 42.84 -476.72 z m 296.29 -380.17 l 392.85 -380.17 l 392.85 -476.72 l 296.29 -476.72 z m 549.74 -380.17 l 646.29 -380.17 l 646.29 -476.72 l 549.74 -476.72 z m 423.02 -253.45 l 519.57 -253.45 l 519.57 -350.00 l 423.02 -350.00 z "}}}
